<svg width="261" height="57" viewBox="0 0 261 57" fill="none" xmlns="http://www.w3.org/2000/svg">
<path d="M260.461 33.3166C260.749 33.4603 260.91 33.6399 260.946 33.8554C261.018 34.0709 261.018 34.2865 260.946 34.502C260.874 34.7175 260.749 35.0229 260.569 35.418C259.24 38.2199 257.48 40.7525 255.288 43.0156C252.774 45.4583 250.205 46.3563 247.583 45.7097C246.29 45.4223 245.248 44.5961 244.458 43.2311C243.704 41.8661 243.398 40.2316 243.542 38.3277C243.793 34.8073 245.302 31.1433 248.068 27.3355C250.798 23.6355 253.546 22.1448 256.312 22.8632C256.42 22.8991 256.546 22.9351 256.689 22.971C257.587 23.2943 258.27 23.887 258.737 24.7491C259.24 25.5753 259.384 26.4554 259.168 27.3894C258.557 29.904 257.228 31.9336 255.181 33.4782C253.133 35.1306 251.175 35.9209 249.307 35.8491C248.984 35.8132 248.769 35.9748 248.661 36.334C248.23 37.3758 247.942 38.5612 247.799 39.8903C247.655 41.2194 247.673 42.2432 247.853 42.9617C248.176 44.0753 248.894 44.4524 250.008 44.0932C251.588 43.5544 253.259 42.2971 255.019 40.3214C255.953 39.2437 257.282 37.2321 259.006 34.2865C259.042 34.2505 259.096 34.1607 259.168 34.0171C259.276 33.8734 259.33 33.7836 259.33 33.7476C259.366 33.7117 259.42 33.6399 259.491 33.5321C259.563 33.4243 259.617 33.3705 259.653 33.3705C259.689 33.3345 259.743 33.2986 259.815 33.2627C259.887 33.2268 259.94 33.2088 259.976 33.2088C260.048 33.2088 260.12 33.2268 260.192 33.2627C260.264 33.2627 260.354 33.2807 260.461 33.3166ZM253.564 24.803C253.133 24.8389 252.828 25.0545 252.648 25.4496C253.079 25.3778 253.385 25.1622 253.564 24.803ZM251.409 25.1263C251.122 25.1622 250.942 25.3598 250.87 25.719C251.157 25.5394 251.337 25.3418 251.409 25.1263ZM255.827 26.3117C254.893 26.7428 253.744 27.8564 252.379 29.6525C251.014 31.4486 250.295 32.7777 250.223 33.6399C253.349 31.8797 255.217 29.437 255.827 26.3117ZM249.792 26.7967C249.397 27.0122 249.146 27.3535 249.038 27.8205C249.433 27.569 249.685 27.2278 249.792 26.7967ZM245.643 33.9093L247.152 30.9457C246.398 31.8078 245.895 32.7957 245.643 33.9093ZM247.529 30.0297C247.924 29.7064 248.14 29.3112 248.176 28.8443C247.817 29.1676 247.601 29.5627 247.529 30.0297Z" fill="white"/>
<path d="M236.821 37.4115C235.851 40.3212 235.24 43.3028 234.989 46.3562C234.845 48.296 235.096 49.5173 235.743 50.0202C236.21 50.3794 236.91 49.7508 237.844 48.1343C240.395 43.7159 242.622 39.1178 244.526 34.3402C244.598 34.1965 244.634 34.1067 244.634 34.0708C244.67 33.9989 244.723 33.8912 244.795 33.7475C244.903 33.6038 244.993 33.5499 245.065 33.5858C245.173 33.6217 245.298 33.6397 245.442 33.6397C245.837 33.7834 246.089 33.9271 246.196 34.0708C246.34 34.2145 246.358 34.43 246.25 34.7174C246.214 34.897 246.178 35.0407 246.142 35.1484C243.915 41.2193 241.508 46.1586 238.922 49.9663C237.808 51.6547 236.408 52.409 234.719 52.2294C233.929 52.1576 233.228 51.8343 232.618 51.2595C232.043 50.7207 231.666 49.9663 231.486 48.9964C231.019 46.5537 231.019 43.5183 231.486 39.8902C231.558 39.2436 231.63 38.7047 231.702 38.2737C230.229 40.5008 228.63 42.6023 226.906 44.578C226.295 45.2246 225.541 45.6018 224.643 45.7096C223.781 45.8173 222.955 45.6557 222.164 45.2246C221.266 44.6858 220.656 43.8775 220.332 42.7999C219.973 41.7222 219.919 40.5547 220.171 39.2974C220.422 38.0042 220.692 36.8547 220.979 35.8489C221.302 34.8431 221.679 33.8732 222.11 32.9392C223.152 30.6761 224.427 28.5567 225.936 26.581C227.481 24.5694 229.097 23.2223 230.786 22.5397C231.827 22.0728 232.743 21.9111 233.534 22.0548C234.36 22.1985 235.168 22.6834 235.958 23.5096C236.318 23.8689 236.605 24.1742 236.821 24.4257C236.857 24.3179 237.054 23.9048 237.413 23.1863C237.773 22.432 238.042 21.8572 238.222 21.4621C240.269 16.9718 242.73 12.6971 245.604 8.63786C246.25 7.70389 247.058 6.85972 248.028 6.10535C248.998 5.35098 249.896 5.06361 250.723 5.24322C252.519 5.67428 253.417 7.05729 253.417 9.39223C253.417 9.78737 253.363 10.2184 253.255 10.6854C253.183 11.1165 253.093 11.5116 252.986 11.8709C252.914 12.1942 252.752 12.6252 252.501 13.1641C252.285 13.7029 252.106 14.116 251.962 14.4034C251.854 14.6548 251.621 15.0859 251.261 15.6966C250.938 16.2713 250.723 16.6485 250.615 16.8281C250.543 17.0077 250.309 17.4208 249.914 18.0674C249.519 18.714 249.286 19.0733 249.214 19.1451C246.556 23.5995 242.568 29.365 237.252 36.4416C237.036 36.729 236.892 37.0523 236.821 37.4115ZM250.507 8.58398C249.25 9.87718 247.525 12.5175 245.334 16.5048C243.179 20.4922 241.67 23.8329 240.808 26.5271C241.131 26.3834 241.401 26.1859 241.616 25.9344C244.813 21.9111 247.633 17.6364 250.076 13.1102C250.866 11.817 251.225 10.416 251.154 8.90728C251.154 8.65582 251.082 8.49417 250.938 8.42233C250.794 8.35049 250.651 8.40437 250.507 8.58398ZM240.592 18.3907C240.305 19.0014 240.161 19.3786 240.161 19.5223C240.413 19.199 240.557 18.8218 240.592 18.3907ZM239.03 24.3718C239.533 23.797 239.82 23.1325 239.892 22.3781C239.856 22.4499 239.748 22.6475 239.569 22.9708C239.389 23.2582 239.245 23.5096 239.138 23.7252C239.066 23.9407 239.03 24.1562 239.03 24.3718ZM238.976 24.4795C238.689 24.8028 238.383 25.5033 238.06 26.581C238.132 26.4373 238.258 26.2397 238.437 25.9883C238.617 25.7009 238.742 25.4494 238.814 25.2339C238.922 24.9825 238.976 24.731 238.976 24.4795ZM237.306 28.3053L236.982 28.9519C237.306 28.8082 237.413 28.5926 237.306 28.3053ZM229.708 25.2878C229.708 25.2878 229.69 25.3417 229.654 25.4494C229.726 25.4854 229.852 25.4135 230.031 25.2339C230.067 25.198 230.085 25.1621 230.085 25.1261C230.085 25.0902 230.049 25.0723 229.977 25.0723C229.942 25.0723 229.852 25.1441 229.708 25.2878ZM227.445 26.2038C227.409 26.2397 227.337 26.2936 227.229 26.3655C227.122 26.4373 227.05 26.5092 227.014 26.581C227.014 26.6169 226.978 26.6888 226.906 26.7965C226.834 26.9043 226.834 26.9941 226.906 27.0659C227.193 26.8504 227.373 26.563 227.445 26.2038ZM226.852 27.1198C226.709 27.1198 226.583 27.1558 226.475 27.2276C226.403 27.2994 226.313 27.4252 226.206 27.6048C226.134 27.7844 226.062 27.9281 225.99 28.0358C226.385 27.8562 226.673 27.5509 226.852 27.1198ZM221.248 39.028C221.32 38.8125 221.482 38.3096 221.733 37.5193C221.985 36.729 222.146 36.1183 222.218 35.6873C222.075 35.8669 221.949 36.0645 221.841 36.28C221.733 36.4596 221.643 36.7111 221.572 37.0344C221.5 37.3217 221.446 37.5193 221.41 37.6271C221.41 37.7348 221.374 37.9863 221.302 38.3814C221.266 38.7766 221.248 38.9921 221.248 39.028ZM222.218 35.5795C222.649 34.8251 222.937 34.0348 223.08 33.2086C223.044 33.3523 222.919 33.5858 222.703 33.9091C222.524 34.2324 222.38 34.5198 222.272 34.7713C222.2 35.0227 222.182 35.2921 222.218 35.5795ZM223.673 32.4004L224.805 30.3528L224.589 30.2451C224.517 30.3169 224.374 30.5145 224.158 30.8378C223.978 31.1611 223.853 31.4305 223.781 31.646C223.709 31.8616 223.673 32.113 223.673 32.4004ZM225.074 31.9693C224.715 32.4004 224.481 32.8853 224.374 33.4242C224.769 33.029 225.002 32.5441 225.074 31.9693ZM231.917 43.5003C231.953 43.177 231.953 42.9795 231.917 42.9076C231.881 42.9076 231.845 42.9076 231.809 42.9076C231.809 43.1232 231.809 43.3207 231.809 43.5003C231.809 43.5722 231.827 43.644 231.863 43.7159C231.899 43.644 231.917 43.5722 231.917 43.5003ZM232.618 45.4401C232.977 44.578 233.049 43.6979 232.833 42.7999C232.761 43.6979 232.69 44.578 232.618 45.4401ZM227.122 41.345C231.109 36.1722 233.947 31.4664 235.635 27.2276C235.958 26.4732 235.797 25.8087 235.15 25.2339C234.36 24.4795 233.139 25.0543 231.486 26.9582C228.361 30.5145 226.08 35.2203 224.643 41.0756C224.427 41.7581 224.374 42.4406 224.481 43.1232C224.625 43.5183 224.841 43.6081 225.128 43.3926C225.918 42.8178 226.583 42.1353 227.122 41.345Z" fill="white"/>
<path d="M222.718 33.3163C222.97 33.3882 223.149 33.478 223.257 33.5858C223.365 33.6935 223.401 33.8372 223.365 34.0168C223.365 34.1964 223.329 34.3581 223.257 34.5018C223.185 34.6455 223.077 34.861 222.934 35.1484C221.604 37.5911 219.611 39.2255 216.953 40.0518C216.414 40.2673 216.001 40.6265 215.713 41.1294C213.45 44.3265 211.043 46.0508 208.493 46.3022C207.164 46.4459 205.996 46.1406 204.99 45.3862C203.985 44.6318 203.302 43.5542 202.943 42.1532C202.368 40.3571 202.206 38.4353 202.458 36.3877C202.745 34.3401 203.266 32.4003 204.021 30.5683C204.775 28.7363 205.853 27.0659 207.254 25.5572C208.655 24.0484 210.217 22.9348 211.941 22.2164C213.055 21.7135 214.204 21.6596 215.39 22.0547C216.575 22.414 217.473 23.1144 218.084 24.1562C219.198 25.9523 219.593 28.5028 219.27 31.8076C219.018 33.6037 218.605 35.3639 218.03 37.0882C218.605 36.9804 219.18 36.6751 219.754 36.1722C220.365 35.6333 220.85 35.0586 221.209 34.4479C221.245 34.376 221.299 34.2862 221.371 34.1785C221.658 33.7115 221.874 33.4241 222.018 33.3163C222.161 33.2086 222.395 33.2086 222.718 33.3163ZM211.888 24.5873C211.349 24.9106 211.025 25.2339 210.918 25.5572C210.989 25.5212 211.115 25.4673 211.295 25.3955C211.474 25.2877 211.618 25.18 211.726 25.0722C211.834 24.9285 211.888 24.7669 211.888 24.5873ZM206.984 28.0897C207.056 28.2693 207.128 28.3052 207.2 28.1974C208.277 26.8683 208.816 26.1858 208.816 26.1499C208.924 26.078 209.517 25.4673 210.594 24.3178C209.086 25.2877 207.882 26.545 206.984 28.0897ZM212.265 39.6207C212.408 39.5129 212.48 39.3692 212.48 39.1896C212.516 38.9741 212.462 38.7945 212.319 38.6508C210.989 37.0702 210.397 34.9328 210.54 32.2387C210.576 31.6639 210.558 31.3227 210.487 31.2149C210.379 31.179 210.289 31.2149 210.217 31.3227C209.032 33.3343 208.223 35.4717 207.792 37.7348C207.433 39.0998 207.325 40.4828 207.469 41.8838C207.541 42.3867 207.667 42.692 207.846 42.7998C208.026 42.8716 208.349 42.7818 208.816 42.5304C210.181 41.8119 211.331 40.842 212.265 39.6207ZM214.043 36.9265C215.731 33.0829 216.306 29.7241 215.767 26.8504C214.618 27.6766 213.845 29.2033 213.45 31.4304C213.055 33.6576 213.253 35.4896 214.043 36.9265Z" fill="white"/>
<path d="M204.714 33.7476C204.929 33.8554 205.073 33.9631 205.145 34.0709C205.253 34.1427 205.289 34.2685 205.253 34.4481C205.217 34.6277 205.163 34.8073 205.091 34.9869C205.019 35.1665 204.858 35.4898 204.606 35.9568C204.462 36.2442 204.355 36.4597 204.283 36.6034C204.139 36.8908 203.744 37.699 203.097 39.0282C202.451 40.3214 201.984 41.2374 201.696 41.7762C201.409 42.2791 200.924 43.1053 200.242 44.2548C199.595 45.4044 199.02 46.2844 198.517 46.8951C198.05 47.5058 197.458 48.2063 196.739 48.9966C196.057 49.8228 195.338 50.4873 194.584 50.9902C193.829 51.5291 193.021 51.9601 192.159 52.2834C190.399 52.8941 188.693 52.9121 187.04 52.3373C185.424 51.7985 184.059 50.7927 182.945 49.3199C181.831 47.9189 181.041 46.1408 180.574 43.9854C180.107 41.8301 179.91 39.6388 179.981 37.4117C180.125 33.4961 180.951 29.5627 182.46 25.6112C183.969 21.6239 185.944 17.9778 188.387 14.6729C190.255 12.1943 192.393 10.1108 194.799 8.42247C197.242 6.73412 199.828 5.71034 202.558 5.35112C204.714 5.06374 206.438 5.47685 207.731 6.59043C209.06 7.70402 209.689 9.17683 209.617 11.0089C209.545 13.5953 208.36 16.3433 206.061 19.253C203.798 22.1268 201.337 24.0666 198.679 25.0724C197.134 25.6831 195.895 25.4316 194.961 24.318C194.063 23.1685 193.991 21.8574 194.745 20.3846L195.069 19.9535V20.0074C194.745 20.5103 194.709 21.0132 194.961 21.5161C195.141 21.9112 195.446 22.1268 195.877 22.1627C196.344 22.1986 196.811 22.1088 197.278 21.8933C197.781 21.6778 198.212 21.4622 198.571 21.2467C198.93 21.0312 199.218 20.8336 199.433 20.654C201.84 18.7142 203.798 16.3792 205.307 13.6491C205.666 13.0744 205.881 12.4817 205.953 11.871C206.025 11.2603 205.881 10.6676 205.522 10.0928C205.163 9.6977 204.696 9.48217 204.121 9.44625C203.582 9.41033 203.008 9.51809 202.397 9.76955C201.786 10.021 201.247 10.2904 200.78 10.5778C200.313 10.8652 199.882 11.1526 199.487 11.4399C195.859 14.2059 192.806 17.9059 190.327 22.5399C187.848 27.1738 186.286 31.8437 185.639 36.5495C185.531 37.8787 185.442 39.3155 185.37 40.8602C185.298 42.3689 185.495 43.9315 185.962 45.548C186.429 47.1286 187.148 48.314 188.118 49.1043C189.16 49.8946 190.237 50.2 191.351 50.0204C192.5 49.8407 193.578 49.3199 194.584 48.4577C195.626 47.6315 196.559 46.5359 197.386 45.1709C199.397 41.9019 201.355 38.3456 203.259 34.502C203.51 33.9631 203.708 33.6578 203.852 33.586C203.995 33.4782 204.283 33.5321 204.714 33.7476ZM187.363 27.0661C187.543 26.7787 187.615 26.5452 187.579 26.3656C187.579 26.4374 187.525 26.5452 187.417 26.6889C187.31 26.7967 187.292 26.9224 187.363 27.0661ZM192.375 17.6904C192.734 17.3671 192.913 17.0977 192.913 16.8821C192.554 17.0618 192.375 17.3312 192.375 17.6904ZM194.207 10.0928C193.919 10.1647 193.758 10.3084 193.722 10.5239C194.045 10.5239 194.207 10.3802 194.207 10.0928ZM181.221 38.8126C181.867 28.6467 185.585 19.6302 192.375 11.7632C185.082 19.5943 181.364 28.6107 181.221 38.8126ZM183.807 30.6763C184.023 30.317 184.112 29.9039 184.077 29.4369C183.789 29.7962 183.699 30.2093 183.807 30.6763ZM196.2 10.3084C194.081 11.4579 191.764 13.9545 189.249 17.7982C186.771 21.6418 185.298 24.8569 184.831 27.4433C187.525 20.3666 191.315 14.655 196.2 10.3084Z" fill="white"/>
<path d="M166.639 33.3166C166.926 33.4603 167.088 33.6399 167.124 33.8554C167.196 34.0709 167.196 34.2865 167.124 34.502C167.052 34.7175 166.926 35.0229 166.747 35.418C165.418 38.2199 163.657 40.7525 161.466 43.0156C158.952 45.4583 156.383 46.3563 153.761 45.7097C152.468 45.4223 151.426 44.5961 150.636 43.2311C149.881 41.8661 149.576 40.2316 149.72 38.3277C149.971 34.8073 151.48 31.1433 154.246 27.3355C156.976 23.6355 159.724 22.1448 162.49 22.8632C162.598 22.8991 162.723 22.9351 162.867 22.971C163.765 23.2943 164.448 23.887 164.915 24.7491C165.418 25.5753 165.561 26.4554 165.346 27.3894C164.735 29.904 163.406 31.9336 161.358 33.4782C159.311 35.1306 157.353 35.9209 155.485 35.8491C155.162 35.8132 154.946 35.9748 154.839 36.334C154.408 37.3758 154.12 38.5612 153.976 39.8903C153.833 41.2194 153.851 42.2432 154.03 42.9617C154.354 44.0753 155.072 44.4524 156.186 44.0932C157.766 43.5544 159.437 42.2971 161.197 40.3214C162.131 39.2437 163.46 37.2321 165.184 34.2865C165.22 34.2505 165.274 34.1607 165.346 34.0171C165.454 33.8734 165.507 33.7836 165.507 33.7476C165.543 33.7117 165.597 33.6399 165.669 33.5321C165.741 33.4243 165.795 33.3705 165.831 33.3705C165.867 33.3345 165.921 33.2986 165.992 33.2627C166.064 33.2268 166.118 33.2088 166.154 33.2088C166.226 33.2088 166.298 33.2268 166.37 33.2627C166.441 33.2627 166.531 33.2807 166.639 33.3166ZM159.742 24.803C159.311 24.8389 159.006 25.0545 158.826 25.4496C159.257 25.3778 159.562 25.1622 159.742 24.803ZM157.587 25.1263C157.299 25.1622 157.12 25.3598 157.048 25.719C157.335 25.5394 157.515 25.3418 157.587 25.1263ZM162.005 26.3117C161.071 26.7428 159.922 27.8564 158.557 29.6525C157.191 31.4486 156.473 32.7777 156.401 33.6399C159.526 31.8797 161.394 29.437 162.005 26.3117ZM155.97 26.7967C155.575 27.0122 155.324 27.3535 155.216 27.8205C155.611 27.569 155.862 27.2278 155.97 26.7967ZM151.821 33.9093L153.33 30.9457C152.575 31.8078 152.073 32.7957 151.821 33.9093ZM153.707 30.0297C154.102 29.7064 154.318 29.3112 154.354 28.8443C153.994 29.1676 153.779 29.5627 153.707 30.0297Z" fill="white"/>
<path d="M152.231 33.4236C152.77 33.6751 152.896 34.1241 152.609 34.7707C150.022 41.4163 147.849 46.5172 146.089 50.0735C145.334 51.6541 144.598 52.606 143.88 52.9293C142.407 53.54 141.024 53.3784 139.731 52.4444C138.904 51.8696 138.294 51.0794 137.899 50.0735C137.503 49.1036 137.288 48.1158 137.252 47.11C137.216 46.1401 137.306 45.0085 137.521 43.7153C137.737 42.3862 137.952 41.3085 138.168 40.4823C138.419 39.6561 138.725 38.7042 139.084 37.6265C140.233 34.3217 141.634 31.1246 143.287 28.0353C143.466 27.6761 143.969 26.6164 144.796 24.8562C145.658 23.096 146.358 21.7489 146.897 20.8149C147.22 20.2402 147.274 19.9708 147.059 20.0067C146.556 20.294 146.143 20.6712 145.819 21.1382C144.131 22.9703 142.048 25.862 139.569 29.8134C137.378 33.3697 134.63 38.3988 131.325 44.9007C131.289 44.9367 131.235 45.0265 131.163 45.1702C131.127 45.2779 131.091 45.3677 131.055 45.4396C130.804 45.8347 130.445 46.1041 129.978 46.2478C129.547 46.3915 129.116 46.3915 128.684 46.2478C128.577 46.176 128.487 46.0682 128.415 45.9245C128.379 45.8168 128.379 45.709 128.415 45.6012C128.451 45.5653 128.559 45.1702 128.738 44.4158C128.559 44.5236 128.397 44.7391 128.253 45.0624C128.11 45.3498 127.948 45.5473 127.768 45.6551C127.697 45.6551 127.625 45.6192 127.553 45.5473C127.517 45.4755 127.499 45.4037 127.499 45.3318C127.463 45.2959 127.445 45.26 127.445 45.224C127.445 45.0444 127.427 44.9367 127.391 44.9007C127.355 44.8648 127.23 44.9187 127.014 45.0624C126.87 45.1342 126.745 45.1342 126.637 45.0624C126.565 44.9546 126.529 44.8289 126.529 44.6852C126.565 44.4697 126.619 44.2721 126.691 44.0925C128.056 40.7158 129.672 36.9979 131.54 32.9387C133.157 29.4901 134.306 27.0115 134.989 25.5028C135.168 25.1076 135.33 24.6766 135.474 24.2096C135.546 23.994 135.51 23.8863 135.366 23.8863C135.222 23.8863 135.079 23.9401 134.935 24.0479C134.396 24.4071 133.911 24.8382 133.48 25.3411C130.894 28.1071 128.649 31.1425 126.745 34.4474C124.877 37.7882 123.206 41.2367 121.734 44.793C121.626 45.0444 121.536 45.242 121.464 45.3857C121.392 45.5294 121.32 45.6551 121.249 45.7629C121.213 45.8347 121.159 45.8527 121.087 45.8168C121.051 45.8168 120.997 45.7988 120.925 45.7629C120.818 45.691 120.728 45.6731 120.656 45.709C120.62 45.709 120.548 45.727 120.44 45.7629C120.333 45.8347 120.261 45.8886 120.225 45.9245C119.758 46.0323 119.452 46.0323 119.309 45.9245C119.201 45.8168 119.165 45.5114 119.201 45.0085C119.201 45.0085 119.201 44.8828 119.201 44.6313C119.093 44.5954 119.021 44.5954 118.986 44.6313C118.95 44.6672 118.914 44.7391 118.878 44.8469C118.842 44.9187 118.824 44.9546 118.824 44.9546C118.608 45.3138 118.465 45.4935 118.393 45.4935C118.321 45.4935 118.159 45.3138 117.908 44.9546C117.8 44.775 117.692 44.775 117.585 44.9546C117.369 45.2061 117.153 45.242 116.938 45.0624C116.722 44.8828 116.669 44.6493 116.776 44.3619C117.638 41.3444 118.95 37.5547 120.71 32.9925C120.818 32.6333 121.069 31.9328 121.464 30.8911C121.859 29.8493 122.147 29.077 122.326 28.5741C122.542 28.0712 122.811 27.4066 123.135 26.5804C123.494 25.7542 123.835 24.9999 124.158 24.3173C124.482 23.6348 124.823 22.9703 125.182 22.3237C125.541 21.6771 125.918 21.5872 126.314 22.0542C126.385 22.1261 126.529 22.1081 126.745 22.0004C126.852 21.9285 126.96 21.8746 127.068 21.8387C127.212 21.8028 127.301 21.8207 127.337 21.8926C127.409 21.9644 127.445 22.0722 127.445 22.2159C127.481 22.3237 127.517 22.4135 127.553 22.4853C127.589 22.5212 127.643 22.5212 127.715 22.4853C128.146 22.2338 128.505 22.2698 128.792 22.5931C128.828 22.5931 128.936 22.7368 129.116 23.0241C129.295 23.2756 129.457 23.4552 129.601 23.563C129.816 23.6707 129.834 23.9042 129.654 24.2635C127.858 28.1071 126.942 30.0469 126.906 30.0828C127.768 28.6819 128.702 27.3528 129.708 26.0955C130.678 24.8382 131.756 23.6707 132.941 22.5931C134.019 21.5154 135.312 21.1023 136.821 21.3538C137.611 21.4974 138.222 21.9285 138.653 22.647C139.084 23.3295 139.21 24.0659 139.03 24.8562C138.779 25.9698 138.473 27.0654 138.114 28.143C141.239 23.078 143.7 19.8271 145.496 18.3902C146.61 17.4562 147.795 17.1329 149.052 17.4203C150.346 17.7077 151.172 18.5339 151.531 19.8989C151.639 20.33 151.711 20.779 151.747 21.246C151.782 21.713 151.782 22.144 151.747 22.5392C151.747 22.8984 151.675 23.3474 151.531 23.8863C151.423 24.4251 151.333 24.8202 151.262 25.0717C151.226 25.3232 151.082 25.7542 150.831 26.3649C150.579 26.9756 150.417 27.3528 150.346 27.4964C150.31 27.6401 150.13 28.0353 149.807 28.6819C149.519 29.2926 149.376 29.6338 149.376 29.7057C146.933 34.9862 145.173 39.261 144.095 42.5299C143.484 44.1823 143.089 45.8886 142.91 47.6488C142.838 48.1158 142.802 48.6546 142.802 49.2653C142.802 49.9119 142.892 50.343 143.071 50.5585C143.466 50.2352 143.754 49.858 143.933 49.4269C145.73 46.1221 147.328 42.7454 148.729 39.2969C149.627 37.1056 150.328 35.4352 150.831 34.2857C151.046 33.7469 151.226 33.4416 151.369 33.3697C151.513 33.262 151.8 33.2799 152.231 33.4236ZM122.488 31.5377C122.955 30.7474 123.17 30.1726 123.135 29.8134C122.991 29.9571 122.883 30.1188 122.811 30.2984C122.739 30.4421 122.668 30.6935 122.596 31.0527C122.524 31.376 122.488 31.5377 122.488 31.5377ZM123.458 32.6692C123.889 31.9867 124.32 31.0348 124.751 29.8134C125.218 28.5561 125.469 27.6401 125.505 27.0654C124.679 28.8615 123.997 30.7294 123.458 32.6692ZM125.775 23.7246C125.954 23.4372 126.026 23.1139 125.99 22.7547C124.913 24.8741 123.979 27.0474 123.188 29.2746C123.152 29.4542 123.135 29.6159 123.135 29.7595C123.242 29.7236 123.314 29.6697 123.35 29.5979C123.422 29.5261 123.476 29.4183 123.512 29.2746C123.584 29.095 123.619 28.9872 123.619 28.9513C123.907 28.3047 124.284 27.3887 124.751 26.2032C125.254 25.0178 125.595 24.1916 125.775 23.7246ZM131.271 35.9022C130.876 36.3333 130.642 36.8183 130.57 37.3571C130.966 36.9619 131.199 36.477 131.271 35.9022ZM129.385 43.1226C129.385 43.0148 129.421 42.8891 129.493 42.7454C129.565 42.6017 129.601 42.494 129.601 42.4221C129.636 42.3503 129.636 42.2066 129.601 41.991C129.565 42.027 129.493 42.1707 129.385 42.4221C129.313 42.6736 129.313 42.9071 129.385 43.1226ZM130.355 40.6978C130.355 40.6978 130.463 40.5003 130.678 40.1051C130.894 39.71 130.984 39.4046 130.948 39.1891C130.517 39.5843 130.319 40.0872 130.355 40.6978ZM131.001 39.0814C131.72 38.1474 132.169 37.1056 132.349 35.9561C132.241 36.2076 132.079 36.5309 131.864 36.926C131.648 37.3212 131.468 37.6983 131.325 38.0576C131.181 38.3809 131.073 38.7221 131.001 39.0814ZM131.81 34.609C132.241 34.1061 132.528 33.5134 132.672 32.8309C132.241 33.3338 131.953 33.9265 131.81 34.609ZM132.941 35.2556C132.977 35.1479 133.049 34.9503 133.157 34.6629C133.3 34.3755 133.408 34.16 133.48 34.0163C133.049 34.3037 132.869 34.7168 132.941 35.2556ZM145.281 36.3872C145.316 36.3153 145.388 36.2076 145.496 36.0639C145.604 35.8843 145.676 35.7585 145.712 35.6867C145.783 35.5789 145.837 35.4532 145.873 35.3095C145.909 35.1658 145.909 35.0221 145.873 34.8785C145.478 35.3095 145.281 35.8124 145.281 36.3872ZM147.166 31.861C146.807 32.4717 146.646 32.8668 146.682 33.0464C146.897 32.9387 147.059 32.5435 147.166 31.861ZM146.682 33.1542C146.179 33.5853 145.927 34.1241 145.927 34.7707C146.394 34.3396 146.646 33.8008 146.682 33.1542ZM145.712 25.5566C143.556 29.9751 142.245 32.7052 141.778 33.7469C141.706 33.9984 141.491 34.609 141.132 35.5789C140.772 36.5129 140.467 37.2134 140.216 37.6804C140.323 37.6804 140.413 37.6445 140.485 37.5726C140.557 37.5008 140.611 37.4469 140.647 37.411C140.683 37.375 140.718 37.3032 140.754 37.1954C140.79 37.0517 140.826 36.9619 140.862 36.926C140.97 36.6386 141.203 36.0459 141.563 35.1479C141.958 34.2498 142.263 33.5673 142.479 33.1003C142.874 32.2382 143.449 31.0348 144.203 29.4901C144.957 27.9096 145.46 26.8498 145.712 26.311C145.999 25.7003 146.125 25.3052 146.089 25.1256C145.873 25.1974 145.748 25.3411 145.712 25.5566ZM139.838 39.0275C139.838 39.0993 139.802 39.243 139.731 39.4585C139.659 39.6741 139.605 39.8357 139.569 39.9435C139.569 40.0153 139.587 40.177 139.623 40.4284C139.838 39.9614 140 39.4765 140.108 38.9736C140.359 38.5425 140.377 38.1294 140.162 37.7343C140.198 37.9139 140.162 38.1653 140.054 38.4886C139.946 38.776 139.874 38.9556 139.838 39.0275ZM138.761 49.4269C138.689 47.4512 138.797 45.4935 139.084 43.5537C139.264 42.5119 139.443 41.4881 139.623 40.4823C139.479 40.5182 139.389 40.626 139.353 40.8056C138.707 43.1046 138.383 45.4575 138.383 47.8643C138.348 48.4391 138.473 48.9599 138.761 49.4269ZM141.994 48.6726C142.101 48.1697 142.101 47.6667 141.994 47.1638C141.886 47.6667 141.886 48.1697 141.994 48.6726ZM142.209 46.3556C142.353 46.176 142.371 45.9784 142.263 45.7629C142.119 45.9425 142.101 46.1401 142.209 46.3556ZM140.054 48.3493C140.162 44.2901 141.024 40.4105 142.64 36.7105C143.035 35.7765 143.61 34.4474 144.365 32.7231C145.155 30.9989 145.676 29.8673 145.927 29.3285C146.143 28.8974 146.286 28.4484 146.358 27.9814C146.107 28.3047 145.981 28.4843 145.981 28.5202C144.113 31.9688 142.568 35.543 141.347 39.243C140.449 41.7935 139.91 44.4158 139.731 47.11C139.623 47.7566 139.713 48.3672 140 48.942C140 48.8701 140 48.7803 140 48.6726C140.036 48.6007 140.054 48.5289 140.054 48.457C140.054 48.4211 140.054 48.3852 140.054 48.3493Z" fill="white"/>
<path d="M121.199 33.8018C121.63 33.9455 121.882 34.0892 121.953 34.2329C122.025 34.3407 121.971 34.664 121.792 35.2028C120.067 38.7232 118.11 42.3334 115.918 46.0333C114.949 47.5421 113.835 48.2785 112.578 48.2426C111.356 48.2066 110.44 47.5421 109.83 46.2489C109.003 44.5246 108.932 42.2795 109.614 39.5135C111.159 33.3708 113.566 27.6053 116.835 22.2169C116.978 21.9296 117.176 21.732 117.427 21.6242C117.715 21.4805 118.002 21.4626 118.289 21.5703C119.367 21.8577 120.085 22.3786 120.445 23.133C120.624 23.5999 120.642 24.049 120.499 24.48C120.067 25.8451 119.547 27.1742 118.936 28.4674C116.888 32.9577 115.146 37.5557 113.709 42.2615C113.278 43.6266 113.152 44.6863 113.332 45.4406C113.44 45.7999 113.619 45.8358 113.871 45.5484C114.841 44.2911 115.703 42.944 116.457 41.5072C116.817 40.7887 117.391 39.6751 118.182 38.1664C118.972 36.6217 119.565 35.4543 119.96 34.664C119.996 34.5921 120.05 34.5023 120.121 34.3946C120.193 34.2509 120.229 34.1611 120.229 34.1251C120.265 34.0892 120.301 34.0353 120.337 33.9635C120.409 33.8557 120.463 33.8018 120.499 33.8018C120.534 33.7659 120.588 33.748 120.66 33.748C120.732 33.712 120.804 33.712 120.876 33.748C120.984 33.748 121.091 33.7659 121.199 33.8018ZM110.207 43.9858V41.6688C109.991 42.4591 109.991 43.2314 110.207 43.9858ZM111.177 43.9319C111.177 43.6086 111.213 43.1057 111.285 42.4232C111.392 41.7406 111.446 41.2198 111.446 40.8605C111.231 41.4712 111.087 42.0819 111.015 42.6926C110.943 43.1236 110.997 43.5368 111.177 43.9319ZM113.278 35.4183C113.889 33.8378 114.661 31.862 115.595 29.4912L115.38 29.4373C114.446 31.3412 113.745 33.3349 113.278 35.4183ZM115.811 26.4198C115.99 26.1684 116.062 25.881 116.026 25.5577C115.164 26.815 114.518 28.198 114.086 29.7067C114.374 29.3116 114.697 28.7189 115.056 27.9286C115.451 27.1024 115.703 26.5994 115.811 26.4198ZM116.511 24.6956C116.26 24.8752 116.116 25.1266 116.08 25.4499C116.332 25.3781 116.475 25.1266 116.511 24.6956ZM114.033 29.8145C113.602 30.3174 113.476 30.7664 113.655 31.1616C113.691 31.0538 113.763 30.8562 113.871 30.5688C114.015 30.2455 114.068 29.9941 114.033 29.8145ZM113.655 31.2693C113.44 31.3771 113.314 31.4669 113.278 31.5387C113.242 31.6106 113.224 31.7902 113.224 32.0776C113.404 31.7543 113.548 31.4849 113.655 31.2693ZM125.671 13.1107C125.779 13.1825 125.725 13.4519 125.51 13.9189C124.504 16.2539 123.857 17.7626 123.57 18.4451C123.426 18.7325 123.229 19.0019 122.977 19.2534C122.618 19.6126 122.42 19.5587 122.384 19.0917C122.349 18.9839 122.223 18.948 122.007 18.9839C121.361 19.0917 120.966 19.0737 120.822 18.9301C120.678 18.7504 120.732 18.3373 120.984 17.6907C121.091 17.3674 121.127 17.1699 121.091 17.098C120.984 17.1699 120.858 17.2956 120.714 17.4752C120.606 17.6548 120.499 17.7985 120.391 17.9063C120.319 17.9781 120.211 17.9781 120.067 17.9063C119.888 17.7626 119.798 17.6369 119.798 17.5291C119.834 17.4213 119.906 17.2776 120.014 17.098C120.121 16.8825 120.175 16.7208 120.175 16.6131C120.175 16.5412 120.175 16.4874 120.175 16.4514C120.103 16.4874 120.032 16.5053 119.96 16.5053C119.888 16.5412 119.798 16.649 119.69 16.8286C119.618 16.9723 119.547 17.0621 119.475 17.098C119.439 17.134 119.331 17.116 119.151 17.0441C118.936 16.9005 118.954 16.5772 119.205 16.0742C119.385 15.715 119.708 15.0864 120.175 14.1883C120.642 13.2544 121.019 12.5359 121.307 12.033C121.307 11.9971 121.325 11.9612 121.361 11.9252C121.468 11.7456 121.54 11.6199 121.576 11.5481C121.648 11.4403 121.738 11.3325 121.846 11.2248C121.953 11.117 122.079 11.0811 122.223 11.117C122.367 11.1529 122.546 11.2607 122.762 11.4403C123.049 11.2248 123.39 11.2427 123.785 11.4942C124.181 11.7456 124.468 11.8714 124.648 11.8714C124.827 11.8354 124.989 12.015 125.133 12.4102C125.312 12.7694 125.492 13.0029 125.671 13.1107ZM120.66 15.5354C120.66 15.5354 120.714 15.4815 120.822 15.3738C120.93 15.2301 120.984 15.1403 120.984 15.1043C120.984 15.0325 120.984 14.8888 120.984 14.6733C120.696 15.0684 120.588 15.3558 120.66 15.5354ZM121.576 13.8111C121.756 13.6315 121.864 13.416 121.9 13.1646C121.9 13.1286 121.882 13.0927 121.846 13.0568C121.702 13.2005 121.576 13.3442 121.468 13.4878C121.361 13.6315 121.361 13.7573 121.468 13.865C121.54 13.8291 121.576 13.8111 121.576 13.8111Z" fill="white"/>
<path d="M108.612 14.9961C108.791 14.7087 108.827 14.5471 108.719 14.5112C108.648 14.4753 108.576 14.4932 108.504 14.5651C107.139 15.966 105.882 17.4388 104.732 18.9835C100.17 24.8747 96.2365 31.1611 92.9316 37.8426C91.5307 40.5009 90.1836 43.4106 88.8904 46.5717C88.4593 47.5775 87.8666 47.9188 87.1122 47.5955C86.3579 47.2363 85.855 46.2484 85.6035 44.6319C84.3462 35.9028 88.0462 23.1505 96.7035 6.37481C97.0627 5.69228 97.3501 5.13549 97.5656 4.70442C97.6734 4.45297 97.6195 4.3452 97.4039 4.38113C97.2962 4.38113 97.1166 4.47093 96.8651 4.65054C96.47 4.97384 95.7515 5.87189 94.7098 7.3447C93.668 8.81751 92.9316 9.9311 92.5006 10.6855C86.1783 21.965 81.5982 31.0174 78.7603 37.8426C75.5273 45.6737 73.7671 49.9664 73.4798 50.7207C73.3002 51.1877 72.7793 51.5469 71.9171 51.7984C71.0909 52.0858 70.3007 52.1576 69.5463 52.0139C68.7919 51.9062 68.4147 51.5829 68.4147 51.044C68.6662 42.7101 70.2108 34.6456 73.0487 26.8504C74.6652 22.1806 76.6409 17.6903 78.9759 13.3796C79.0118 13.3078 79.389 12.6073 80.1074 11.2782C79.856 11.1704 79.6225 11.2063 79.4069 11.386C75.0963 14.116 71.4142 17.9238 68.3609 22.8092C67.1395 24.7849 66.5827 26.4014 66.6905 27.6587C66.7982 28.8082 67.6424 29.347 69.223 29.2752C69.5463 29.2393 69.8875 29.1674 70.2468 29.0597C70.3186 29.0237 70.3545 29.0237 70.3545 29.0597C70.2468 29.2034 69.9594 29.4009 69.4924 29.6524C68.4147 30.2631 67.2473 30.5325 65.99 30.4606C64.7686 30.3529 63.7808 29.814 63.0264 28.8441C61.841 27.2276 61.823 25.1082 62.9725 22.4859C65.523 16.451 69.5642 11.6554 75.0963 8.09907C76.8565 6.98548 78.7244 6.15927 80.7001 5.62044C82.7118 5.04568 84.5258 5.04568 86.1423 5.62044C86.9685 5.90782 87.5253 6.48257 87.8127 7.3447C88.136 8.17091 88.0821 8.97916 87.6511 9.76945C82.3346 19.6121 78.4729 28.3771 76.0662 36.0645C75.8865 36.6392 75.5992 37.6451 75.204 39.082C75.6351 38.2557 75.9404 37.6451 76.12 37.2499C80.8258 26.5092 84.7593 18.4447 87.9205 13.0563C90.902 7.91946 93.5243 4.32724 95.7874 2.27968C96.6496 1.48939 97.4937 0.896672 98.32 0.501529C99.1821 0.106386 99.9185 -0.0552643 100.529 0.0165791C101.14 0.0525008 101.643 0.250072 102.038 0.609294C102.433 0.968515 102.613 1.52531 102.577 2.27968C102.577 3.03404 102.379 3.89617 101.984 4.86607C97.7093 15.1039 94.9073 22.0908 93.5782 25.8267C92.3928 29.2034 91.2074 32.8315 90.0219 36.7111C90.2375 36.6033 90.3991 36.4237 90.5069 36.1723C94.3865 28.1257 99.218 20.7078 105.001 13.9185C106.007 12.6971 107.3 11.4937 108.881 10.3083C110.462 9.12285 111.827 8.60198 112.976 8.74567C113.587 8.81751 114.072 9.01508 114.431 9.33838C114.79 9.66168 114.988 10.1287 115.024 10.7394C115.06 11.3141 115.042 11.8889 114.97 12.4636C114.934 13.0024 114.754 13.7209 114.431 14.6189C114.144 15.4811 113.91 16.1636 113.731 16.6665C113.551 17.1694 113.264 17.8699 112.868 18.768C112.509 19.6301 112.276 20.1869 112.168 20.4383C110.084 25.5752 108.27 30.8737 106.726 36.3339C105.217 41.7941 104.211 46.1047 103.708 49.2659C103.672 49.3737 103.636 49.5353 103.601 49.7508C103.493 50.3974 103.421 50.8824 103.385 51.2057C103.349 51.529 103.331 51.9601 103.331 52.4989C103.331 53.0736 103.403 53.5227 103.547 53.846C103.69 54.2052 103.924 54.5644 104.247 54.9236C104.606 55.3188 105.055 55.6421 105.594 55.8935C105.702 55.9654 105.756 56.0193 105.756 56.0552C104.93 56.2707 104.103 56.3246 103.277 56.2168C101.194 55.9295 99.7568 55.0673 98.9666 53.6304C98.1763 52.1936 97.835 50.2537 97.9428 47.811C98.1583 43.5004 98.9127 39.2077 100.206 34.9329C101.499 30.6223 103.313 25.9704 105.648 20.9772C106.187 19.8277 107.175 17.834 108.612 14.9961ZM79.2992 24.2641C79.2992 24.3 79.2273 24.4437 79.0836 24.6951C78.9399 24.9466 78.8681 25.1082 78.8681 25.1801C78.904 25.216 78.9399 25.3776 78.9759 25.665C78.7244 25.7728 78.5448 25.9524 78.437 26.2038C78.3293 26.4194 78.3293 26.6529 78.437 26.9043C78.0778 27.048 77.9162 27.4432 77.9521 28.0898C78.2035 27.7305 78.3472 27.3354 78.3831 26.9043C78.6705 26.5092 78.8501 26.0781 78.922 25.6111C78.9579 25.5752 79.0477 25.4315 79.1914 25.1801C79.3351 24.9286 79.389 24.7849 79.353 24.749C79.353 24.6772 79.3351 24.4975 79.2992 24.2102C79.4428 24.1383 79.5686 24.0306 79.6763 23.8869C79.7841 23.7432 79.856 23.6175 79.8919 23.5097C79.9278 23.4019 79.9817 23.2403 80.0535 23.0247C80.1254 22.8092 80.1613 22.6655 80.1613 22.5937C80.4487 22.1985 80.5924 21.7675 80.5924 21.3005C80.5564 21.3723 80.4846 21.516 80.3768 21.7315C80.2691 21.9111 80.2152 22.0189 80.2152 22.0548C80.2152 22.0548 80.1972 22.1446 80.1613 22.3243C80.1254 22.5039 80.1433 22.5937 80.2152 22.5937C80.0356 22.7374 79.8919 22.899 79.7841 23.0786C79.6763 23.2223 79.5686 23.4378 79.4608 23.7252C79.389 24.0126 79.3351 24.1922 79.2992 24.2641ZM72.9409 32.5082C73.3002 31.9694 73.4259 31.3946 73.3181 30.7839C73.6055 30.4606 73.7671 30.2451 73.8031 30.1373C73.839 29.9936 73.839 29.7242 73.8031 29.3291C73.5516 29.7961 73.4079 30.281 73.372 30.7839C73.3361 30.8558 73.2822 30.9815 73.2103 31.1611C73.1385 31.3407 73.0846 31.4844 73.0487 31.5922C73.0128 31.664 72.9769 31.8077 72.9409 32.0232C72.905 32.2029 72.905 32.3645 72.9409 32.5082ZM108.342 27.2276C108.701 27.0121 108.917 26.5271 108.989 25.7728C108.63 26.2038 108.414 26.6888 108.342 27.2276C107.983 27.6228 107.839 28.0718 107.911 28.5747C107.732 28.7184 107.642 28.7902 107.642 28.7902C106.277 32.131 105.163 35.5616 104.301 39.082C103.69 41.2014 103.367 42.3329 103.331 42.4766C103.295 42.5844 102.918 44.5421 102.2 48.3499C102.2 48.4936 102.182 48.6911 102.146 48.9426C102.11 49.23 102.092 49.4814 102.092 49.697C102.092 49.9484 102.146 50.1999 102.253 50.4513C102.253 50.3076 102.271 50.0562 102.307 49.697C102.343 49.3737 102.343 49.1042 102.307 48.8887C102.307 48.7091 102.253 48.5115 102.146 48.296C102.361 48.296 102.505 48.1343 102.577 47.811C103.044 44.9373 103.601 42.3149 104.247 39.9441C104.319 39.6567 104.319 39.3514 104.247 39.0281C104.355 39.0281 104.445 38.9921 104.517 38.9203C104.588 38.8125 104.624 38.7407 104.624 38.7048C104.66 38.6329 104.696 38.5431 104.732 38.4354C104.768 38.2917 104.786 38.2019 104.786 38.1659C105.397 35.9388 106.331 33.1368 107.588 29.7601C107.803 29.365 107.893 28.9519 107.857 28.5208C108.288 28.1975 108.45 27.7665 108.342 27.2276ZM70.8395 40.0518C70.9832 39.9441 71.0909 39.8004 71.1628 39.6208C71.2346 39.4053 71.2706 39.2436 71.2706 39.1358C71.3065 39.0281 71.3244 38.8305 71.3244 38.5431C71.3604 38.2557 71.3783 38.0941 71.3783 38.0582C71.055 38.7048 70.8934 39.3873 70.8934 40.1057C70.606 40.5727 70.5701 41.0577 70.7856 41.5606C70.5701 41.6683 70.4623 41.7222 70.4623 41.7222C69.9953 43.6261 69.7439 45.5479 69.7079 47.4877C70.1749 44.8295 70.5162 42.8538 70.7317 41.5606C70.8754 41.0577 70.9113 40.5548 70.8395 40.0518ZM110.013 15.7505L109.797 15.5888C109.617 15.9481 109.51 16.1277 109.474 16.1277C107.103 21.049 105.433 24.7131 104.463 27.1199C101.984 33.1907 100.332 38.6509 99.5054 43.5004C99.0743 46.0149 98.9666 48.5295 99.1821 51.044C99.3617 50.6489 99.4335 50.2537 99.3976 49.8586C99.5054 45.1887 100.242 40.6266 101.607 36.1723C103.223 30.9635 105.235 25.8985 107.642 20.9772C107.714 20.7616 108.504 19.0194 110.013 15.7505ZM70.7856 47.38C71.073 47.0926 71.2167 46.7513 71.2167 46.3562C71.7196 42.8358 72.456 39.3873 73.4259 36.0106C75.222 29.6524 77.988 22.5218 81.7239 14.6189C82.0472 14.1879 82.155 13.7209 82.0472 13.218C76.1919 24.6772 72.438 36.0645 70.7856 47.38ZM100.529 49.4814C100.709 49.4096 100.799 49.212 100.799 48.8887C101.194 44.4344 102.074 40.0698 103.439 35.7951C104.337 32.8854 106.043 28.4131 108.558 22.3781C108.594 22.3063 108.63 22.2165 108.666 22.1087C108.737 21.965 108.791 21.8752 108.827 21.8393C108.863 21.7675 108.881 21.6597 108.881 21.516C108.917 21.3364 108.917 21.1927 108.881 21.0849C108.773 21.2286 108.666 21.3903 108.558 21.5699C104.75 29.6165 102.218 37.0344 100.96 43.8237C100.637 45.6916 100.493 47.5775 100.529 49.4814ZM97.6734 7.668L97.4578 7.50635C97.2782 7.86558 97.1884 8.04519 97.1884 8.04519C94.7457 12.9665 93.0214 16.6306 92.0156 19.0374C89.5011 25.0723 87.8127 30.5145 86.9506 35.364C86.4836 37.8426 86.3399 40.3392 86.5195 42.8538C86.735 42.4946 86.8069 42.0994 86.7351 41.6683C86.8787 37.0344 87.6511 32.4902 89.052 28.0359C90.7404 22.8631 92.8059 17.816 95.2486 12.8947C95.3923 12.5714 96.2005 10.8292 97.6734 7.668ZM87.8666 41.3451C88.0462 41.2732 88.154 41.0756 88.1899 40.7523C88.585 36.298 89.5011 31.9334 90.9379 27.6587C91.836 24.7849 93.5782 20.3306 96.1646 14.2956C96.1646 14.2956 96.2185 14.1699 96.3263 13.9185C96.47 13.667 96.5238 13.5413 96.4879 13.5413C96.4879 13.5054 96.4879 13.3437 96.4879 13.0563C96.3802 13.2 96.2724 13.3437 96.1646 13.4874C92.285 21.498 89.6986 28.898 88.4054 35.6873C88.0462 37.5553 87.8666 39.4412 87.8666 41.3451ZM73.9647 28.6286C75.4734 24.8208 76.7487 21.7136 77.7904 19.3068C78.8681 16.8641 80.1793 14.2418 81.7239 11.4398C79.9637 14.134 78.5448 16.7204 77.4671 19.199C76.4254 21.6417 75.2579 24.7849 73.9647 28.6286ZM65.1817 23.348L66.4211 20.8694L66.2055 20.7616C66.1696 20.8335 66.0618 21.0311 65.8822 21.3544C65.7026 21.6417 65.5769 21.8573 65.505 22.001C65.4332 22.1446 65.3614 22.3422 65.2895 22.5937C65.2177 22.8451 65.1817 23.0966 65.1817 23.348ZM65.1817 19.9534L64.2657 21.8393L64.4274 21.9471C64.7507 21.3364 65.0919 20.7078 65.4512 20.0612L65.1817 19.9534ZM91.4768 29.9757C91.8001 29.5087 91.9797 28.9878 92.0156 28.4131C91.6564 28.8441 91.4768 29.365 91.4768 29.9757ZM72.1866 34.8791C71.8633 35.382 71.7555 35.9208 71.8633 36.4956C71.8992 36.3519 71.9531 36.1543 72.0249 35.9028C72.1327 35.6514 72.1866 35.4897 72.1866 35.4179C72.2225 35.3101 72.2225 35.1305 72.1866 34.8791ZM69.4385 14.2956L68.8997 14.7806C69.0075 14.7447 69.0973 14.7267 69.1691 14.7267C69.2409 14.6908 69.3128 14.6369 69.3846 14.5651C69.4565 14.4932 69.4744 14.4034 69.4385 14.2956ZM77.2516 30.0296C77.2516 29.9936 77.3234 29.832 77.4671 29.5446C77.6108 29.2213 77.6108 29.0237 77.4671 28.9519C77.4671 28.9519 77.3953 29.1135 77.2516 29.4368C77.1079 29.7242 77.1079 29.9218 77.2516 30.0296ZM68.307 15.8583C68.3429 15.7864 68.3249 15.7505 68.2531 15.7505C68.2172 15.7505 68.1812 15.7505 68.1453 15.7505C68.0376 15.8583 67.9657 15.984 67.9298 16.1277H68.0914C68.1992 16.0558 68.271 15.966 68.307 15.8583Z" fill="white"/>
<path d="M31.1107 49.7988C27.3785 49.7988 25.5124 46.1465 25.5124 38.8418C25.5124 36.0077 25.9714 32.7645 26.8895 29.1122C27.8275 25.4598 28.9552 22.2865 30.2724 19.5921C31.1306 17.8757 31.8591 16.5086 32.4578 15.4907C33.9747 12.8961 36.0503 10.4114 38.6848 8.03633C40.1817 6.65922 41.7384 5.97066 43.355 5.97066C45.2311 6.30995 46.1691 7.86669 46.1691 10.6409C46.1691 12.5369 45.1912 15.6504 43.2353 19.9813C41.2993 24.3122 40.0519 27.0166 39.4931 28.0943C38.9542 29.172 38.5052 29.7109 38.1459 29.7109C37.9863 29.7109 37.8565 29.6411 37.7567 29.5014C37.6769 29.3417 37.637 29.202 37.637 29.0822C37.637 28.9226 37.8366 28.3937 38.2357 27.4956C42.6265 18.4146 44.8219 12.8463 44.8219 10.7906C44.8219 9.63299 44.6722 8.79474 44.3729 8.27583C44.0735 7.75692 43.5845 7.49746 42.906 7.49746C41.429 7.49746 39.2137 9.31365 36.2599 12.946L35.5414 13.7843C32.368 17.6562 29.8932 22.7655 28.1169 29.1122C27.1989 32.5051 26.7398 35.7283 26.7398 38.7819C26.7398 42.9731 27.5481 45.7972 29.1647 47.2542C29.8832 47.8729 30.7215 48.1822 31.6795 48.1822C32.7173 48.1822 33.6054 47.9227 34.3439 47.4038C35.0823 46.8849 35.721 46.3361 36.2599 45.7573L36.2898 45.6675C37.5871 44.4301 39.7725 41.5261 42.8461 36.9557C43.6045 35.878 44.0436 35.2293 44.1633 35.0098C44.303 34.8102 44.4827 34.5807 44.7022 34.3212C45.7999 32.7046 46.4186 31.8165 46.5583 31.6568C46.718 31.4772 46.9076 31.3874 47.1271 31.3874C47.4464 31.3874 47.6061 31.4972 47.6061 31.7167C47.6061 31.8564 46.7878 33.0539 45.1512 35.3092C40.3613 41.8954 37.4274 45.8172 36.3497 47.0745C34.3938 48.8907 32.6474 49.7988 31.1107 49.7988Z" fill="#FFE019"/>
<path d="M21.3758 51.3256C20.3579 51.3256 19.849 48.8807 19.849 43.991C19.849 40.2189 20.4078 34.91 21.5254 28.0644C21.8248 25.849 22.1541 24.0029 22.5134 22.526C22.7529 21.0491 23.0522 19.6121 23.4115 18.215C23.6709 17.2969 23.8805 16.4088 24.0402 15.5506C23.5013 16.4487 23.0622 17.247 22.7229 17.9456C18.7313 26.2482 15.7176 31.4173 13.6819 33.4531C13.0831 33.9919 12.4545 34.2614 11.7958 34.2614C11.1572 34.2614 10.6283 33.952 10.2092 33.3333C9.69025 32.2755 9.43079 30.649 9.43079 28.4536C9.43079 26.8769 9.53058 25.3201 9.73016 23.7833L8.53267 26.9268C6.87614 32.555 5.43915 37.9636 4.22171 43.1528C3.48325 46.3261 3.11403 47.9427 3.11403 48.0026C2.7947 49.4396 2.33566 50.1581 1.73691 50.1581C1.07829 50.0583 0.748983 49.7589 0.748983 49.26C0.748983 48.8608 0.958544 48.0325 1.37767 46.7752C3.43336 39.2908 5.75849 31.7367 8.35305 24.1127C9.43079 20.8994 10.4786 17.7161 11.4965 14.5627C11.9156 13.445 12.3048 12.8862 12.664 12.8862C12.9833 12.9061 13.143 13.2454 13.143 13.904C13.143 14.403 13.0931 14.9119 12.9933 15.4308L12.3048 18.6042C11.5264 21.9971 11.1372 25.2104 11.1372 28.244C11.1372 29.9804 11.3468 31.4573 11.7659 32.6747C12.3447 32.4352 12.8037 32.0959 13.143 31.6568C13.8815 30.9982 14.8594 29.7009 16.0769 27.765C17.3143 25.8291 19.7791 21.3784 23.4714 14.413C24.8086 11.8783 25.6668 10.0721 26.046 8.99433C26.4651 7.59726 27.004 6.89873 27.6626 6.89873C27.9819 6.89873 28.1416 7.11827 28.1416 7.55735C28.1416 8.13613 27.9919 8.86461 27.6925 9.74276C27.4131 10.6209 26.1058 15.83 23.7707 25.37C22.2739 30.5991 21.4157 36.3271 21.1961 42.554L21.1662 44.47C21.1662 46.0267 21.266 47.0147 21.4656 47.4338C21.725 47.2941 21.9446 47.2242 22.1242 47.2242C22.5832 47.2242 22.8527 47.5934 22.9325 48.3319C22.9325 50.3277 22.4136 51.3256 21.3758 51.3256Z" fill="#FFE019"/>
<path d="M46.1691 10.6409C46.1691 7.86669 45.2311 6.30995 43.355 5.97066C41.7384 5.97066 40.1817 6.65922 38.6848 8.03633L37.7226 8.93217C35.5398 11.0343 33.785 13.2206 32.4578 15.4907L31.9851 16.32C31.4874 17.2143 30.916 18.305 30.2724 19.5921C28.9552 22.2865 27.8275 25.4598 26.8895 29.1122C25.9714 32.7645 25.5124 36.0077 25.5124 38.8418C25.5124 45.918 27.2636 49.5662 30.766 49.7875L31.1107 49.7988C32.5514 49.7987 34.177 49.001 35.986 47.4048L36.3497 47.0745C37.1581 46.1314 39.0102 43.6894 41.9062 39.7494L45.1512 35.3092C46.5824 33.337 47.3882 32.1734 47.5677 31.8193L47.6061 31.7167C47.6061 31.4972 47.4464 31.3874 47.1271 31.3874C46.9076 31.3874 46.718 31.4772 46.5583 31.6568L46.3632 31.9128C46.0788 32.3057 45.5255 33.1088 44.7022 34.3212C44.4827 34.5807 44.303 34.8102 44.1633 35.0098L44.0141 35.2544C43.8046 35.5799 43.4152 36.147 42.8461 36.9557L41.7352 38.5917C39.2401 42.2262 37.4249 44.5847 36.2898 45.6675L36.2599 45.7573C35.721 46.3361 35.0823 46.8849 34.3439 47.4038L34.0594 47.586C33.3806 47.9832 32.5874 48.1822 31.6795 48.1822L31.6796 47.434C32.5872 47.434 33.319 47.2084 33.9132 46.7908C34.5661 46.332 35.126 45.8512 35.603 45.3554L35.6381 45.2545L35.7726 45.1259C37.0007 43.9544 39.1427 41.1212 42.2249 36.5379L42.2336 36.5247C43.0056 35.4278 43.413 34.8229 43.5069 34.6507L43.5259 34.6142L43.5507 34.5806C43.6998 34.3677 43.8829 34.1326 44.0974 33.8774C44.6394 33.0794 45.0661 32.4586 45.375 32.0151C45.6715 31.5895 45.8905 31.2837 45.9948 31.1644L45.9992 31.16C46.2858 30.8376 46.6727 30.6396 47.1277 30.6396L47.306 30.6469C47.4961 30.6649 47.7133 30.7181 47.9097 30.853C48.2222 31.0678 48.3541 31.3988 48.3541 31.7169C48.3541 31.8677 48.3089 31.9867 48.2971 32.0181C48.2774 32.0704 48.2548 32.1192 48.2357 32.1569C48.1969 32.2336 48.1461 32.3197 48.091 32.4098C47.9788 32.5931 47.8169 32.8395 47.6101 33.1422C47.1948 33.7498 46.5758 34.6195 45.7565 35.7485V35.75C40.9757 42.3237 38.0193 46.2753 36.9171 47.5612L36.8908 47.5933L36.8587 47.6226C34.8582 49.4802 32.9341 50.5475 31.111 50.5476C30.0502 50.5476 29.087 50.2857 28.2517 49.7407C27.4207 49.1984 26.7585 48.403 26.2462 47.4004C25.2322 45.4158 24.7639 42.5335 24.7639 38.8417C24.7639 35.9298 25.2358 32.623 26.1643 28.9293V28.9264C27.1118 25.2371 28.2553 22.0137 29.5995 19.264L29.6024 19.2567C30.4641 17.5334 31.2017 16.1497 31.8126 15.1111C33.3744 12.4401 35.5022 9.89753 38.1831 7.48062C39.7795 6.01364 41.5076 5.2222 43.3548 5.22217H43.4221L43.4879 5.23386C44.6259 5.43967 45.5198 6.03429 46.1059 7.007C46.6728 7.94791 46.9172 9.18397 46.9172 10.641C46.9172 11.7006 46.6476 13.0379 46.1498 14.6229C45.649 16.2169 44.9021 18.1057 43.9176 20.2858C41.9906 24.5967 40.7343 27.3202 40.1608 28.4279L40.1623 28.4294C39.8828 28.9884 39.6061 29.4517 39.3276 29.7859C39.0833 30.0791 38.6862 30.4595 38.1465 30.4598C37.7247 30.4598 37.376 30.2554 37.1481 29.9365L37.113 29.8883L37.0867 29.8356C37.0056 29.6732 36.9345 29.4876 36.904 29.2875L36.8879 29.0828L36.9128 28.8592C36.9262 28.791 36.942 28.7305 36.9552 28.6852C36.9877 28.5729 37.0334 28.4435 37.0867 28.3022C37.1939 28.0181 37.3497 27.6454 37.5516 27.1913L37.5559 27.181L37.5618 27.1693C39.7537 22.6361 41.3914 18.9928 42.4792 16.2338C43.0232 14.8541 43.4256 13.7057 43.691 12.784C43.9605 11.8481 44.074 11.196 44.074 10.7901C44.074 9.66279 43.9215 8.99138 43.7247 8.65004C43.579 8.39758 43.3597 8.24663 42.9061 8.24659C42.4418 8.24659 41.6927 8.55119 40.6111 9.43794C39.5589 10.3005 38.3035 11.6201 36.8411 13.4184L36.828 13.433L36.1102 14.2721C33.0248 18.0413 30.5927 23.044 28.8379 29.3138C27.9356 32.65 27.4887 35.8051 27.4887 38.7817C27.4887 42.9248 28.2971 45.4538 29.6536 46.687L29.8743 46.8624C30.4016 47.2451 30.9961 47.434 31.6796 47.434L31.6795 48.1822L31.3258 48.1678C30.63 48.1098 30.0014 47.8779 29.4401 47.472L29.1647 47.2542C27.6492 45.8883 26.8438 43.3209 26.749 39.5521L26.7398 38.7819C26.7398 35.7283 27.1989 32.5051 28.1169 29.1122C29.8932 22.7655 32.368 17.6562 35.5414 13.7843L36.2599 12.946C39.2137 9.31365 41.429 7.49746 42.906 7.49746L43.1516 7.50985C43.7037 7.56664 44.111 7.82199 44.3729 8.27583C44.6722 8.79474 44.8219 9.63299 44.8219 10.7906L44.8151 10.9933C44.6824 13.1972 42.4894 18.6981 38.2357 27.4956C37.8366 28.3937 37.637 28.9226 37.637 29.0822C37.637 29.202 37.6769 29.3417 37.7567 29.5014C37.8315 29.6059 37.9228 29.6719 38.031 29.6982L38.1459 29.7109C38.5052 29.7109 38.9542 29.172 39.4931 28.0943C40.0519 27.0166 41.2993 24.3122 43.2353 19.9813C45.0689 15.9212 46.0424 12.931 46.1571 11.0108L46.1691 10.6409Z" fill="#FFE019"/>
<path d="M28.1416 7.55735C28.1416 7.11827 27.9819 6.89873 27.6626 6.89873C27.004 6.89873 26.4651 7.59726 26.046 8.99433C25.6668 10.0721 24.8086 11.8783 23.4714 14.413L20.9327 19.1661C18.6241 23.4466 17.0049 26.3129 16.0769 27.765C14.8594 29.7009 13.8815 30.9982 13.143 31.6568L13.0098 31.8164C12.6868 32.1788 12.2723 32.4651 11.7659 32.6747C11.3992 31.6094 11.1934 30.3452 11.1475 28.8826L11.1372 28.244C11.1372 25.5896 11.4345 22.7973 12.0305 19.8678L12.9933 15.4308C13.0931 14.9119 13.143 14.403 13.143 13.904C13.143 13.2454 12.9833 12.9061 12.664 12.8862C12.3048 12.8862 11.9156 13.445 11.4965 14.5627L9.94742 19.3152C9.42351 20.9069 8.89193 22.506 8.35305 24.1127C5.75849 31.7367 3.43336 39.2908 1.37767 46.7752C0.958544 48.0325 0.748983 48.8608 0.748983 49.26L0.764511 49.4381C0.826405 49.7748 1.07332 49.9998 1.50563 50.112L1.73691 50.1581C2.33566 50.1581 2.7947 49.4396 3.11403 48.0026C3.11403 47.9427 3.48325 46.3261 4.22171 43.1528C5.43915 37.9636 6.87614 32.555 8.53267 26.9268L9.73016 23.7833C9.53058 25.3201 9.43079 26.8769 9.43079 28.4536L9.4431 29.2495C9.49981 31.0464 9.75505 32.4076 10.2092 33.3333C10.5758 33.8745 11.0266 34.1796 11.5612 34.2473L11.7958 34.2614C12.3721 34.2614 12.9252 34.0547 13.4557 33.6421L13.6819 33.4531C15.7176 31.4173 18.7313 26.2482 22.7229 17.9456C23.0622 17.247 23.5013 16.4487 24.0402 15.5506C23.8805 16.4088 23.6709 17.2969 23.4115 18.215C23.0522 19.6121 22.7529 21.0491 22.5134 22.526C22.1541 24.0029 21.8248 25.849 21.5254 28.0644C20.4078 34.91 19.849 40.2189 19.849 43.991L19.8554 44.8788C19.915 49.1765 20.4216 51.3254 21.3758 51.3256C22.4136 51.3256 22.9325 50.3277 22.9325 48.3319C22.8527 47.5934 22.5832 47.2242 22.1242 47.2242C21.9446 47.2242 21.725 47.2941 21.4656 47.4338C21.3159 47.1194 21.223 46.4851 21.1856 45.5308L21.1662 44.47L21.1961 42.554C21.4157 36.3271 22.2739 30.5991 23.7707 25.37C26.1051 15.8329 27.4126 10.6233 27.6925 9.74276C27.9544 8.97453 28.1021 8.3209 28.1349 7.78179L28.1416 7.55735ZM28.8906 7.55667C28.8906 8.25193 28.7128 9.06976 28.4009 9.98469C28.1215 10.8754 26.8251 16.0409 24.498 25.5483L24.4936 25.5614L24.4907 25.576C23.0128 30.7388 22.1619 36.4062 21.9442 42.5809L21.915 44.4812C21.9153 45.2412 21.9391 45.8458 21.9852 46.3026C21.9916 46.366 22.0002 46.4257 22.0071 46.481C22.0459 46.4779 22.0849 46.4751 22.124 46.4751C22.5912 46.4751 22.9981 46.6814 23.2745 47.0598C23.5205 47.397 23.6303 47.8247 23.6765 48.2512L23.6808 48.2921V48.3316C23.6808 49.3697 23.5497 50.2629 23.2072 50.9219C23.0302 51.2623 22.7865 51.5591 22.4603 51.7682C22.1308 51.9794 21.7601 52.0737 21.3756 52.0737C20.7641 52.0737 20.3384 51.6885 20.0732 51.2639C19.8133 50.8478 19.6313 50.2882 19.4972 49.6443C19.2267 48.3443 19.1011 46.4483 19.1011 43.9916C19.1011 40.1587 19.6668 34.8023 20.7865 27.9441C21.0852 25.7373 21.4155 23.8803 21.7791 22.3791C21.8474 21.9594 21.9205 21.5428 21.9983 21.1293C20.5651 24.01 19.2718 26.4438 18.1158 28.4265C16.6036 31.0204 15.3014 32.8928 14.2114 33.9827L14.1822 34.0091C13.4781 34.6427 12.6777 35.0104 11.7951 35.0104C10.8634 35.0101 10.1202 34.5369 9.58928 33.7532L9.56004 33.7094L9.53666 33.6626C8.99566 32.5595 8.73413 31.0011 8.69028 29.0565C7.27095 33.9853 6.02612 38.7413 4.95105 43.3235C4.58199 44.9095 4.30498 46.1056 4.12076 46.9122C4.02859 47.3157 3.96015 47.6206 3.91465 47.8273C3.89184 47.9308 3.87541 48.0073 3.86495 48.0582C3.86397 48.063 3.86285 48.0673 3.86202 48.0714V48.0845L3.84448 48.1649C3.67755 48.9161 3.45925 49.555 3.16037 50.0229C2.85685 50.4976 2.3901 50.9072 1.7366 50.9072H1.68105L1.62404 50.8985C1.21724 50.8367 0.808016 50.6997 0.49262 50.4132C0.152129 50.1036 0 49.6918 0 49.2598C2.89159e-05 48.9612 0.0745038 48.5781 0.181261 48.1562C0.292312 47.7172 0.455435 47.1758 0.668034 46.538C2.72517 39.0516 5.05045 31.4959 7.64511 23.8716C8.72149 20.6624 9.76701 17.4828 10.7836 14.3335L10.7894 14.3159L10.7952 14.2999C11.0129 13.7194 11.2409 13.2325 11.4881 12.8776C11.7042 12.5672 12.0873 12.1382 12.6634 12.1379H12.6868L12.7102 12.1394C13.1942 12.1696 13.5276 12.4711 13.6998 12.8366C13.8495 13.1547 13.8913 13.5355 13.8913 13.9037C13.8913 14.4527 13.8357 15.009 13.7276 15.5716L13.7247 15.5892L13.0362 18.7627L13.0347 18.7715C12.2671 22.1172 11.8858 25.2741 11.8857 28.2438C11.8857 29.5019 11.9989 30.5974 12.2176 31.5372C12.3424 31.4317 12.4559 31.3224 12.5508 31.1995L12.5932 31.144L12.6444 31.0986C13.2967 30.5169 14.2277 29.3004 15.4437 27.3667L15.4466 27.3623C16.6644 25.4572 19.1138 21.0353 22.8096 14.0631L23.7189 12.306C24.5344 10.6932 25.0708 9.51126 25.34 8.74656C25.559 8.02467 25.8271 7.41301 26.1717 6.96611C26.531 6.50033 27.028 6.15044 27.6627 6.15044L27.7943 6.15629C28.1031 6.18641 28.4115 6.32575 28.6275 6.62259C28.8418 6.91731 28.8906 7.2688 28.8906 7.55667Z" fill="#FFE019"/>
<path d="M46.7375 29.9804C46.7375 41.9675 37.0201 51.6849 25.033 51.6849C13.0459 51.6849 3.32849 41.9675 3.32849 29.9804C3.32849 17.9933 13.0459 8.27588 25.033 8.27588C37.0201 8.27588 46.7375 17.9933 46.7375 29.9804Z" fill="#FFE019"/>
<mask id="mask0_12_2255" style="mask-type:alpha" maskUnits="userSpaceOnUse" x="3" y="8" width="44" height="44">
<path d="M46.7375 29.9804C46.7375 41.9675 37.0201 51.6849 25.033 51.6849C13.0459 51.6849 3.32849 41.9675 3.32849 29.9804C3.32849 17.9933 13.0459 8.27588 25.033 8.27588C37.0201 8.27588 46.7375 17.9933 46.7375 29.9804Z" fill="#FFE019"/>
</mask>
<g mask="url(#mask0_12_2255)">
<path d="M31.1107 49.7988C27.3785 49.7988 25.5124 46.1465 25.5124 38.8418C25.5124 36.0077 25.9714 32.7645 26.8895 29.1122C27.8275 25.4598 28.9552 22.2865 30.2724 19.5921C31.1306 17.8757 31.8591 16.5086 32.4578 15.4907C33.9747 12.8961 36.0503 10.4114 38.6848 8.03633C40.1817 6.65922 41.7384 5.97066 43.355 5.97066C45.2311 6.30995 46.1691 7.86669 46.1691 10.6409C46.1691 12.5369 45.1912 15.6504 43.2353 19.9813C41.2993 24.3122 40.0519 27.0166 39.4931 28.0943C38.9542 29.172 38.5052 29.7109 38.1459 29.7109C37.9863 29.7109 37.8565 29.6411 37.7567 29.5014C37.6769 29.3417 37.637 29.202 37.637 29.0822C37.637 28.9226 37.8366 28.3937 38.2357 27.4956C42.6265 18.4146 44.8219 12.8463 44.8219 10.7906C44.8219 9.63299 44.6722 8.79474 44.3729 8.27583C44.0735 7.75692 43.5845 7.49746 42.906 7.49746C41.429 7.49746 39.2137 9.31365 36.2599 12.946L35.5414 13.7843C32.368 17.6562 29.8932 22.7655 28.1169 29.1122C27.1989 32.5051 26.7398 35.7283 26.7398 38.7819C26.7398 42.9731 27.5481 45.7972 29.1647 47.2542C29.8832 47.8729 30.7215 48.1822 31.6795 48.1822C32.7173 48.1822 33.6054 47.9227 34.3439 47.4038C35.0823 46.8849 35.721 46.3361 36.2599 45.7573L36.2898 45.6675C37.5871 44.4301 39.7725 41.5261 42.8461 36.9557C43.6045 35.878 44.0436 35.2293 44.1633 35.0098C44.303 34.8102 44.4827 34.5807 44.7022 34.3212C45.7999 32.7046 46.4186 31.8165 46.5583 31.6568C46.718 31.4772 46.9076 31.3874 47.1271 31.3874C47.4464 31.3874 47.6061 31.4972 47.6061 31.7167C47.6061 31.8564 46.7878 33.0539 45.1512 35.3092C40.3613 41.8954 37.4274 45.8172 36.3497 47.0745C34.3938 48.8907 32.6474 49.7988 31.1107 49.7988Z" fill="black"/>
<path d="M21.3758 51.3256C20.3579 51.3256 19.849 48.8807 19.849 43.991C19.849 40.2189 20.4078 34.91 21.5254 28.0644C21.8248 25.849 22.1541 24.0029 22.5134 22.526C22.7529 21.0491 23.0522 19.6121 23.4115 18.215C23.6709 17.2969 23.8805 16.4088 24.0402 15.5506C23.5013 16.4487 23.0622 17.247 22.7229 17.9456C18.7313 26.2482 15.7176 31.4173 13.6819 33.4531C13.0831 33.9919 12.4545 34.2614 11.7958 34.2614C11.1572 34.2614 10.6283 33.952 10.2092 33.3333C9.69025 32.2755 9.43079 30.649 9.43079 28.4536C9.43079 26.8769 9.53058 25.3201 9.73016 23.7833L8.53267 26.9268C6.87614 32.555 5.43915 37.9636 4.22171 43.1528C3.48325 46.3261 3.11403 47.9427 3.11403 48.0026C2.7947 49.4396 2.33566 50.1581 1.73691 50.1581C1.07829 50.0583 0.748983 49.7589 0.748983 49.26C0.748983 48.8608 0.958544 48.0325 1.37767 46.7752C3.43336 39.2908 5.75849 31.7367 8.35305 24.1127C9.43079 20.8994 10.4786 17.7161 11.4965 14.5627C11.9156 13.445 12.3048 12.8862 12.664 12.8862C12.9833 12.9061 13.143 13.2454 13.143 13.904C13.143 14.403 13.0931 14.9119 12.9933 15.4308L12.3048 18.6042C11.5264 21.9971 11.1372 25.2104 11.1372 28.244C11.1372 29.9804 11.3468 31.4573 11.7659 32.6747C12.3447 32.4352 12.8037 32.0959 13.143 31.6568C13.8815 30.9982 14.8594 29.7009 16.0769 27.765C17.3143 25.8291 19.7791 21.3784 23.4714 14.413C24.8086 11.8783 25.6668 10.0721 26.046 8.99433C26.4651 7.59726 27.004 6.89873 27.6626 6.89873C27.9819 6.89873 28.1416 7.11827 28.1416 7.55735C28.1416 8.13613 27.9919 8.86461 27.6925 9.74276C27.4131 10.6209 26.1058 15.83 23.7707 25.37C22.2739 30.5991 21.4157 36.3271 21.1961 42.554L21.1662 44.47C21.1662 46.0267 21.266 47.0147 21.4656 47.4338C21.725 47.2941 21.9446 47.2242 22.1242 47.2242C22.5832 47.2242 22.8527 47.5934 22.9325 48.3319C22.9325 50.3277 22.4136 51.3256 21.3758 51.3256Z" fill="black"/>
<path d="M46.1691 10.6409C46.1691 7.86669 45.2311 6.30995 43.355 5.97066C41.7384 5.97066 40.1817 6.65922 38.6848 8.03633L37.7226 8.93217C35.5398 11.0343 33.785 13.2206 32.4578 15.4907L31.9851 16.32C31.4874 17.2143 30.916 18.305 30.2724 19.5921C28.9552 22.2865 27.8275 25.4598 26.8895 29.1122C25.9714 32.7645 25.5124 36.0077 25.5124 38.8418C25.5124 45.918 27.2636 49.5662 30.766 49.7875L31.1107 49.7988C32.5514 49.7987 34.177 49.001 35.986 47.4048L36.3497 47.0745C37.1581 46.1314 39.0102 43.6894 41.9062 39.7494L45.1512 35.3092C46.5824 33.337 47.3882 32.1734 47.5677 31.8193L47.6061 31.7167C47.6061 31.4972 47.4464 31.3874 47.1271 31.3874C46.9076 31.3874 46.718 31.4772 46.5583 31.6568L46.3632 31.9128C46.0788 32.3057 45.5255 33.1088 44.7022 34.3212C44.4827 34.5807 44.303 34.8102 44.1633 35.0098L44.0141 35.2544C43.8046 35.5799 43.4152 36.147 42.8461 36.9557L41.7352 38.5917C39.2401 42.2262 37.4249 44.5847 36.2898 45.6675L36.2599 45.7573C35.721 46.3361 35.0823 46.8849 34.3439 47.4038L34.0594 47.586C33.3806 47.9832 32.5874 48.1822 31.6795 48.1822L31.6796 47.434C32.5872 47.434 33.319 47.2084 33.9132 46.7908C34.5661 46.332 35.126 45.8512 35.603 45.3554L35.6381 45.2545L35.7726 45.1259C37.0007 43.9544 39.1427 41.1212 42.2249 36.5379L42.2336 36.5247C43.0056 35.4278 43.413 34.8229 43.5069 34.6507L43.5259 34.6142L43.5507 34.5806C43.6998 34.3677 43.8829 34.1326 44.0974 33.8774C44.6394 33.0794 45.0661 32.4586 45.375 32.0151C45.6715 31.5895 45.8905 31.2837 45.9948 31.1644L45.9992 31.16C46.2858 30.8376 46.6727 30.6396 47.1277 30.6396L47.306 30.6469C47.4961 30.6649 47.7133 30.7181 47.9097 30.853C48.2222 31.0678 48.3541 31.3988 48.3541 31.7169C48.3541 31.8677 48.3089 31.9867 48.2971 32.0181C48.2774 32.0704 48.2548 32.1192 48.2357 32.1569C48.1969 32.2336 48.1461 32.3197 48.091 32.4098C47.9788 32.5931 47.8169 32.8395 47.6101 33.1422C47.1948 33.7498 46.5758 34.6195 45.7565 35.7485V35.75C40.9757 42.3237 38.0193 46.2753 36.9171 47.5612L36.8908 47.5933L36.8587 47.6226C34.8582 49.4802 32.9341 50.5475 31.111 50.5476C30.0502 50.5476 29.087 50.2857 28.2517 49.7407C27.4207 49.1984 26.7585 48.403 26.2462 47.4004C25.2322 45.4158 24.7639 42.5335 24.7639 38.8417C24.7639 35.9298 25.2358 32.623 26.1643 28.9293V28.9264C27.1118 25.2371 28.2553 22.0137 29.5995 19.264L29.6024 19.2567C30.4641 17.5334 31.2017 16.1497 31.8126 15.1111C33.3744 12.4401 35.5022 9.89753 38.1831 7.48062C39.7795 6.01364 41.5076 5.2222 43.3548 5.22217H43.4221L43.4879 5.23386C44.6259 5.43967 45.5198 6.03429 46.1059 7.007C46.6728 7.94791 46.9172 9.18397 46.9172 10.641C46.9172 11.7006 46.6476 13.0379 46.1498 14.6229C45.649 16.2169 44.9021 18.1057 43.9176 20.2858C41.9906 24.5967 40.7343 27.3202 40.1608 28.4279L40.1623 28.4294C39.8828 28.9884 39.6061 29.4517 39.3276 29.7859C39.0833 30.0791 38.6862 30.4595 38.1465 30.4598C37.7247 30.4598 37.376 30.2554 37.1481 29.9365L37.113 29.8883L37.0867 29.8356C37.0056 29.6732 36.9345 29.4876 36.904 29.2875L36.8879 29.0828L36.9128 28.8592C36.9262 28.791 36.942 28.7305 36.9552 28.6852C36.9877 28.5729 37.0334 28.4435 37.0867 28.3022C37.1939 28.0181 37.3497 27.6454 37.5516 27.1913L37.5559 27.181L37.5618 27.1693C39.7537 22.6361 41.3914 18.9928 42.4792 16.2338C43.0232 14.8541 43.4256 13.7057 43.691 12.784C43.9605 11.8481 44.074 11.196 44.074 10.7901C44.074 9.66279 43.9215 8.99138 43.7247 8.65004C43.579 8.39758 43.3597 8.24663 42.9061 8.24659C42.4418 8.24659 41.6927 8.55119 40.6111 9.43794C39.5589 10.3005 38.3035 11.6201 36.8411 13.4184L36.828 13.433L36.1102 14.2721C33.0248 18.0413 30.5927 23.044 28.8379 29.3138C27.9356 32.65 27.4887 35.8051 27.4887 38.7817C27.4887 42.9248 28.2971 45.4538 29.6536 46.687L29.8743 46.8624C30.4016 47.2451 30.9961 47.434 31.6796 47.434L31.6795 48.1822L31.3258 48.1678C30.63 48.1098 30.0014 47.8779 29.4401 47.472L29.1647 47.2542C27.6492 45.8883 26.8438 43.3209 26.749 39.5521L26.7398 38.7819C26.7398 35.7283 27.1989 32.5051 28.1169 29.1122C29.8932 22.7655 32.368 17.6562 35.5414 13.7843L36.2599 12.946C39.2137 9.31365 41.429 7.49746 42.906 7.49746L43.1516 7.50985C43.7037 7.56664 44.111 7.82199 44.3729 8.27583C44.6722 8.79474 44.8219 9.63299 44.8219 10.7906L44.8151 10.9933C44.6824 13.1972 42.4894 18.6981 38.2357 27.4956C37.8366 28.3937 37.637 28.9226 37.637 29.0822C37.637 29.202 37.6769 29.3417 37.7567 29.5014C37.8315 29.6059 37.9228 29.6719 38.031 29.6982L38.1459 29.7109C38.5052 29.7109 38.9542 29.172 39.4931 28.0943C40.0519 27.0166 41.2993 24.3122 43.2353 19.9813C45.0689 15.9212 46.0424 12.931 46.1571 11.0108L46.1691 10.6409Z" fill="black"/>
<path d="M28.1416 7.55735C28.1416 7.11827 27.9819 6.89873 27.6626 6.89873C27.004 6.89873 26.4651 7.59726 26.046 8.99433C25.6668 10.0721 24.8086 11.8783 23.4714 14.413L20.9327 19.1661C18.6241 23.4466 17.0049 26.3129 16.0769 27.765C14.8594 29.7009 13.8815 30.9982 13.143 31.6568L13.0098 31.8164C12.6868 32.1788 12.2723 32.4651 11.7659 32.6747C11.3992 31.6094 11.1934 30.3452 11.1475 28.8826L11.1372 28.244C11.1372 25.5896 11.4345 22.7973 12.0305 19.8678L12.9933 15.4308C13.0931 14.9119 13.143 14.403 13.143 13.904C13.143 13.2454 12.9833 12.9061 12.664 12.8862C12.3048 12.8862 11.9156 13.445 11.4965 14.5627L9.94742 19.3152C9.42351 20.9069 8.89193 22.506 8.35305 24.1127C5.75849 31.7367 3.43336 39.2908 1.37767 46.7752C0.958544 48.0325 0.748983 48.8608 0.748983 49.26L0.764511 49.4381C0.826405 49.7748 1.07332 49.9998 1.50563 50.112L1.73691 50.1581C2.33566 50.1581 2.7947 49.4396 3.11403 48.0026C3.11403 47.9427 3.48325 46.3261 4.22171 43.1528C5.43915 37.9636 6.87614 32.555 8.53267 26.9268L9.73016 23.7833C9.53058 25.3201 9.43079 26.8769 9.43079 28.4536L9.4431 29.2495C9.49981 31.0464 9.75505 32.4076 10.2092 33.3333C10.5758 33.8745 11.0266 34.1796 11.5612 34.2473L11.7958 34.2614C12.3721 34.2614 12.9252 34.0547 13.4557 33.6421L13.6819 33.4531C15.7176 31.4173 18.7313 26.2482 22.7229 17.9456C23.0622 17.247 23.5013 16.4487 24.0402 15.5506C23.8805 16.4088 23.6709 17.2969 23.4115 18.215C23.0522 19.6121 22.7529 21.0491 22.5134 22.526C22.1541 24.0029 21.8248 25.849 21.5254 28.0644C20.4078 34.91 19.849 40.2189 19.849 43.991L19.8554 44.8788C19.915 49.1765 20.4216 51.3254 21.3758 51.3256C22.4136 51.3256 22.9325 50.3277 22.9325 48.3319C22.8527 47.5934 22.5832 47.2242 22.1242 47.2242C21.9446 47.2242 21.725 47.2941 21.4656 47.4338C21.3159 47.1194 21.223 46.4851 21.1856 45.5308L21.1662 44.47L21.1961 42.554C21.4157 36.3271 22.2739 30.5991 23.7707 25.37C26.1051 15.8329 27.4126 10.6233 27.6925 9.74276C27.9544 8.97453 28.1021 8.3209 28.1349 7.78179L28.1416 7.55735ZM28.8906 7.55667C28.8906 8.25193 28.7128 9.06976 28.4009 9.98469C28.1215 10.8754 26.8251 16.0409 24.498 25.5483L24.4936 25.5614L24.4907 25.576C23.0128 30.7388 22.1619 36.4062 21.9442 42.5809L21.915 44.4812C21.9153 45.2412 21.9391 45.8458 21.9852 46.3026C21.9916 46.366 22.0002 46.4257 22.0071 46.481C22.0459 46.4779 22.0849 46.4751 22.124 46.4751C22.5912 46.4751 22.9981 46.6814 23.2745 47.0598C23.5205 47.397 23.6303 47.8247 23.6765 48.2512L23.6808 48.2921V48.3316C23.6808 49.3697 23.5497 50.2629 23.2072 50.9219C23.0302 51.2623 22.7865 51.5591 22.4603 51.7682C22.1308 51.9794 21.7601 52.0737 21.3756 52.0737C20.7641 52.0737 20.3384 51.6885 20.0732 51.2639C19.8133 50.8478 19.6313 50.2882 19.4972 49.6443C19.2267 48.3443 19.1011 46.4483 19.1011 43.9916C19.1011 40.1587 19.6668 34.8023 20.7865 27.9441C21.0852 25.7373 21.4155 23.8803 21.7791 22.3791C21.8474 21.9594 21.9205 21.5428 21.9983 21.1293C20.5651 24.01 19.2718 26.4438 18.1158 28.4265C16.6036 31.0204 15.3014 32.8928 14.2114 33.9827L14.1822 34.0091C13.4781 34.6427 12.6777 35.0104 11.7951 35.0104C10.8634 35.0101 10.1202 34.5369 9.58928 33.7532L9.56004 33.7094L9.53666 33.6626C8.99566 32.5595 8.73413 31.0011 8.69028 29.0565C7.27095 33.9853 6.02612 38.7413 4.95105 43.3235C4.58199 44.9095 4.30498 46.1056 4.12076 46.9122C4.02859 47.3157 3.96015 47.6206 3.91465 47.8273C3.89184 47.9308 3.87541 48.0073 3.86495 48.0582C3.86397 48.063 3.86285 48.0673 3.86202 48.0714V48.0845L3.84448 48.1649C3.67755 48.9161 3.45925 49.555 3.16037 50.0229C2.85685 50.4976 2.3901 50.9072 1.7366 50.9072H1.68105L1.62404 50.8985C1.21724 50.8367 0.808016 50.6997 0.49262 50.4132C0.152129 50.1036 0 49.6918 0 49.2598C2.89159e-05 48.9612 0.0745038 48.5781 0.181261 48.1562C0.292312 47.7172 0.455435 47.1758 0.668034 46.538C2.72517 39.0516 5.05045 31.4959 7.64511 23.8716C8.72149 20.6624 9.76701 17.4828 10.7836 14.3335L10.7894 14.3159L10.7952 14.2999C11.0129 13.7194 11.2409 13.2325 11.4881 12.8776C11.7042 12.5672 12.0873 12.1382 12.6634 12.1379H12.6868L12.7102 12.1394C13.1942 12.1696 13.5276 12.4711 13.6998 12.8366C13.8495 13.1547 13.8913 13.5355 13.8913 13.9037C13.8913 14.4527 13.8357 15.009 13.7276 15.5716L13.7247 15.5892L13.0362 18.7627L13.0347 18.7715C12.2671 22.1172 11.8858 25.2741 11.8857 28.2438C11.8857 29.5019 11.9989 30.5974 12.2176 31.5372C12.3424 31.4317 12.4559 31.3224 12.5508 31.1995L12.5932 31.144L12.6444 31.0986C13.2967 30.5169 14.2277 29.3004 15.4437 27.3667L15.4466 27.3623C16.6644 25.4572 19.1138 21.0353 22.8096 14.0631L23.7189 12.306C24.5344 10.6932 25.0708 9.51126 25.34 8.74656C25.559 8.02467 25.8271 7.41301 26.1717 6.96611C26.531 6.50033 27.028 6.15044 27.6627 6.15044L27.7943 6.15629C28.1031 6.18641 28.4115 6.32575 28.6275 6.62259C28.8418 6.91731 28.8906 7.2688 28.8906 7.55667Z" fill="black"/>
</g>
</svg>
