<svg width="378" height="82" viewBox="0 0 378 82" fill="none" xmlns="http://www.w3.org/2000/svg">
<path d="M376.915 48.2125C377.331 48.4204 377.565 48.6803 377.617 48.9922C377.721 49.3041 377.721 49.616 377.617 49.9279C377.513 50.2398 377.331 50.6817 377.071 51.2535C375.148 55.3082 372.601 58.973 369.43 62.248C365.791 65.7828 362.074 67.0824 358.279 66.1467C356.408 65.7308 354.901 64.5352 353.757 62.5599C352.665 60.5845 352.223 58.2193 352.431 55.4642C352.795 50.3698 354.979 45.0675 358.981 39.5573C362.932 34.203 366.909 32.0457 370.911 33.0854C371.067 33.1373 371.249 33.1893 371.457 33.2413C372.757 33.7092 373.745 34.5669 374.42 35.8145C375.148 37.0101 375.356 38.2837 375.044 39.6353C374.16 43.2741 372.237 46.2111 369.274 48.4464C366.311 50.8376 363.478 51.9813 360.775 51.8773C360.307 51.8253 359.995 52.0592 359.839 52.5791C359.215 54.0866 358.799 55.802 358.591 57.7254C358.383 59.6488 358.409 61.1303 358.669 62.17C359.137 63.7815 360.177 64.3273 361.788 63.8075C364.076 63.0277 366.493 61.2083 369.04 58.3492C370.392 56.7897 372.315 53.8787 374.81 49.616C374.862 49.5641 374.94 49.4341 375.044 49.2262C375.2 49.0182 375.278 48.8883 375.278 48.8363C375.33 48.7843 375.408 48.6803 375.512 48.5244C375.616 48.3684 375.694 48.2905 375.746 48.2905C375.798 48.2385 375.876 48.1865 375.98 48.1345C376.084 48.0825 376.162 48.0565 376.214 48.0565C376.318 48.0565 376.422 48.0825 376.526 48.1345C376.63 48.1345 376.76 48.1605 376.915 48.2125ZM366.935 35.8925C366.311 35.9444 365.869 36.2563 365.609 36.8282C366.233 36.7242 366.675 36.4123 366.935 35.8925ZM363.816 36.3603C363.4 36.4123 363.14 36.6982 363.036 37.218C363.452 36.9581 363.712 36.6722 363.816 36.3603ZM370.21 38.0758C368.858 38.6996 367.195 40.311 365.219 42.9102C363.244 45.5094 362.204 47.4327 362.1 48.6803C366.623 46.1332 369.326 42.5983 370.21 38.0758ZM361.476 38.7775C360.905 39.0894 360.541 39.5833 360.385 40.2591C360.957 39.8952 361.32 39.4013 361.476 38.7775ZM355.472 49.0702L357.656 44.7816C356.564 46.0292 355.836 47.4587 355.472 49.0702ZM358.202 43.456C358.773 42.9882 359.085 42.4164 359.137 41.7406C358.617 42.2084 358.305 42.7802 358.202 43.456Z" fill="black"/>
<path d="M342.705 54.1386C341.301 58.3492 340.418 62.6638 340.054 67.0824C339.846 69.8895 340.21 71.6569 341.145 72.3847C341.821 72.9045 342.835 71.9948 344.186 69.6556C347.877 63.2616 351.1 56.6078 353.855 49.694C353.959 49.4861 354.011 49.3561 354.011 49.3041C354.063 49.2001 354.141 49.0442 354.245 48.8363C354.401 48.6283 354.531 48.5504 354.635 48.6023C354.791 48.6543 354.973 48.6803 355.181 48.6803C355.753 48.8882 356.117 49.0962 356.273 49.3041C356.481 49.512 356.507 49.8239 356.351 50.2398C356.299 50.4997 356.247 50.7077 356.195 50.8636C352.972 59.6488 349.489 66.7965 345.746 72.3067C344.135 74.7499 342.107 75.8416 339.664 75.5816C338.52 75.4777 337.507 75.0098 336.623 74.1781C335.791 73.3983 335.245 72.3067 334.985 70.9032C334.31 67.3683 334.31 62.9757 334.985 57.7254C335.089 56.7897 335.193 56.01 335.297 55.3862C333.166 58.6091 330.853 61.6501 328.358 64.5092C327.474 65.4449 326.382 65.9907 325.083 66.1467C323.835 66.3026 322.639 66.0687 321.496 65.4449C320.196 64.6652 319.313 63.4955 318.845 61.936C318.325 60.3765 318.247 58.6871 318.611 56.8677C318.975 54.9963 319.365 53.3328 319.78 51.8773C320.248 50.4218 320.794 49.0182 321.418 47.6666C322.925 44.3917 324.771 41.3247 326.954 38.4656C329.189 35.5545 331.529 33.6052 333.972 32.6175C335.479 31.9417 336.805 31.7078 337.949 31.9157C339.144 32.1236 340.314 32.8254 341.457 34.021C341.977 34.5409 342.393 34.9827 342.705 35.3466C342.757 35.1907 343.043 34.5928 343.563 33.5532C344.083 32.4615 344.472 31.6298 344.732 31.058C347.695 24.5601 351.256 18.3741 355.415 12.5C356.351 11.1484 357.52 9.9268 358.924 8.83515C360.327 7.7435 361.627 7.32763 362.822 7.58755C365.422 8.21135 366.721 10.2127 366.721 13.5916C366.721 14.1634 366.643 14.7872 366.487 15.463C366.383 16.0868 366.253 16.6586 366.097 17.1785C365.993 17.6463 365.76 18.2701 365.396 19.0499C365.084 19.8296 364.824 20.4274 364.616 20.8433C364.46 21.2072 364.122 21.831 363.602 22.7147C363.134 23.5464 362.823 24.0922 362.667 24.3522C362.563 24.6121 362.225 25.2099 361.653 26.1456C361.081 27.0813 360.743 27.6011 360.639 27.7051C356.792 34.151 351.022 42.4943 343.329 52.735C343.017 53.1509 342.809 53.6187 342.705 54.1386ZM362.511 12.422C360.691 14.2934 358.196 18.1142 355.025 23.8843C351.906 29.6544 349.723 34.4889 348.475 38.3876C348.943 38.1797 349.333 37.8938 349.645 37.5299C354.271 31.7078 358.352 25.5218 361.887 18.9719C363.03 17.1005 363.55 15.0731 363.446 12.8898C363.446 12.526 363.342 12.292 363.134 12.1881C362.926 12.0841 362.719 12.1621 362.511 12.422ZM348.163 26.6134C347.747 27.4971 347.539 28.043 347.539 28.2509C347.903 27.783 348.111 27.2372 348.163 26.6134ZM345.902 35.2686C346.63 34.4369 347.046 33.4752 347.15 32.3836C347.098 32.4875 346.942 32.7734 346.682 33.2413C346.422 33.6572 346.214 34.021 346.058 34.3329C345.954 34.6448 345.902 34.9567 345.902 35.2686ZM345.824 35.4246C345.408 35.8924 344.966 36.9061 344.498 38.4656C344.602 38.2577 344.784 37.9718 345.044 37.6079C345.304 37.192 345.486 36.8281 345.59 36.5162C345.746 36.1523 345.824 35.7885 345.824 35.4246ZM343.407 40.9608L342.939 41.8965C343.407 41.6886 343.563 41.3767 343.407 40.9608ZM332.412 36.5942C332.412 36.5942 332.386 36.6722 332.334 36.8281C332.438 36.8801 332.62 36.7761 332.88 36.5162C332.932 36.4642 332.958 36.4123 332.958 36.3603C332.958 36.3083 332.906 36.2823 332.802 36.2823C332.75 36.2823 332.62 36.3863 332.412 36.5942ZM329.137 37.9198C329.085 37.9718 328.981 38.0497 328.825 38.1537C328.67 38.2577 328.566 38.3616 328.514 38.4656C328.514 38.5176 328.462 38.6216 328.358 38.7775C328.254 38.9335 328.254 39.0634 328.358 39.1674C328.773 38.8555 329.033 38.4396 329.137 37.9198ZM328.28 39.2454C328.072 39.2454 327.89 39.2973 327.734 39.4013C327.63 39.5053 327.5 39.6872 327.344 39.9471C327.24 40.207 327.136 40.415 327.032 40.5709C327.604 40.311 328.02 39.8692 328.28 39.2454ZM320.17 56.4778C320.274 56.1659 320.508 55.4381 320.872 54.2945C321.236 53.1509 321.47 52.2672 321.574 51.6434C321.366 51.9033 321.184 52.1892 321.028 52.5011C320.872 52.761 320.742 53.1249 320.638 53.5927C320.534 54.0086 320.456 54.2945 320.404 54.4505C320.404 54.6064 320.352 54.9703 320.248 55.5421C320.196 56.1139 320.17 56.4258 320.17 56.4778ZM321.574 51.4874C322.198 50.3958 322.613 49.2521 322.821 48.0565C322.769 48.2644 322.587 48.6023 322.276 49.0702C322.016 49.538 321.808 49.9539 321.652 50.3178C321.548 50.6817 321.522 51.0715 321.574 51.4874ZM323.679 46.8869L325.317 43.9238L325.005 43.7679C324.901 43.8719 324.693 44.1578 324.381 44.6256C324.121 45.0935 323.939 45.4833 323.835 45.7952C323.731 46.1071 323.679 46.471 323.679 46.8869ZM325.706 46.2631C325.187 46.8869 324.849 47.5887 324.693 48.3684C325.265 47.7966 325.602 47.0948 325.706 46.2631ZM335.609 62.9497C335.661 62.4819 335.661 62.196 335.609 62.092C335.557 62.092 335.505 62.092 335.453 62.092C335.453 62.4039 335.453 62.6898 335.453 62.9497C335.453 63.0537 335.479 63.1577 335.531 63.2616C335.583 63.1577 335.609 63.0537 335.609 62.9497ZM336.623 65.7568C337.143 64.5092 337.247 63.2356 336.935 61.936C336.831 63.2356 336.727 64.5092 336.623 65.7568ZM328.669 59.8307C334.44 52.3451 338.546 45.5353 340.99 39.4013C341.457 38.3097 341.223 37.348 340.288 36.5162C339.144 35.4246 337.377 36.2563 334.985 39.0114C330.463 44.1578 327.162 50.9676 325.083 59.4408C324.771 60.4285 324.693 61.4162 324.849 62.4039C325.057 62.9757 325.369 63.1057 325.784 62.7938C326.928 61.962 327.89 60.9744 328.669 59.8307Z" fill="black"/>
<path d="M322.297 48.2124C322.661 48.3164 322.921 48.4464 323.077 48.6023C323.233 48.7583 323.285 48.9662 323.233 49.2261C323.233 49.486 323.181 49.72 323.077 49.9279C322.973 50.1358 322.817 50.4477 322.609 50.8636C320.685 54.3985 317.8 56.7637 313.954 57.9593C313.174 58.2712 312.576 58.791 312.16 59.5188C308.885 64.1453 305.402 66.6405 301.712 67.0044C299.788 67.2123 298.099 66.7705 296.643 65.6788C295.188 64.5872 294.2 63.0277 293.68 61.0003C292.848 58.4012 292.614 55.6201 292.978 52.657C293.394 49.694 294.148 46.8869 295.24 44.2357C296.331 41.5846 297.891 39.1674 299.918 36.9841C301.945 34.8008 304.207 33.1893 306.702 32.1496C308.313 31.4219 309.977 31.3439 311.692 31.9157C313.408 32.4355 314.707 33.4492 315.591 34.9567C317.203 37.5559 317.774 41.2467 317.307 46.0292C316.943 48.6283 316.345 51.1755 315.513 53.6707C316.345 53.5147 317.177 53.0729 318.008 52.3451C318.892 51.5654 319.594 50.7336 320.114 49.8499C320.166 49.746 320.244 49.616 320.348 49.46C320.763 48.7843 321.075 48.3684 321.283 48.2124C321.491 48.0565 321.829 48.0565 322.297 48.2124ZM306.624 35.5805C305.844 36.0484 305.376 36.5162 305.22 36.9841C305.324 36.9321 305.506 36.8541 305.766 36.7501C306.026 36.5942 306.234 36.4382 306.39 36.2823C306.546 36.0744 306.624 35.8404 306.624 35.5805ZM299.528 40.6489C299.632 40.9088 299.736 40.9608 299.84 40.8048C301.4 38.8815 302.179 37.8938 302.179 37.8418C302.335 37.7378 303.193 36.8541 304.753 35.1906C302.569 36.5942 300.828 38.4136 299.528 40.6489ZM307.17 57.3355C307.378 57.1796 307.482 56.9716 307.482 56.7117C307.534 56.3998 307.456 56.1399 307.248 55.932C305.324 53.6447 304.467 50.5517 304.675 46.653C304.727 45.8212 304.701 45.3274 304.597 45.1714C304.441 45.1194 304.311 45.1714 304.207 45.3274C302.491 48.2384 301.322 51.3314 300.698 54.6064C300.178 56.5818 300.022 58.5831 300.23 60.6105C300.334 61.3382 300.516 61.7801 300.776 61.936C301.036 62.04 301.504 61.91 302.179 61.5462C304.155 60.5065 305.818 59.1029 307.17 57.3355ZM309.743 53.4368C312.186 47.8746 313.018 43.0141 312.238 38.8555C310.575 40.0511 309.457 42.2604 308.885 45.4833C308.313 48.7063 308.599 51.3574 309.743 53.4368Z" fill="black"/>
<path d="M296.243 48.8363C296.555 48.9922 296.763 49.1482 296.867 49.3041C297.023 49.4081 297.075 49.59 297.023 49.8499C296.971 50.1099 296.893 50.3698 296.789 50.6297C296.685 50.8896 296.451 51.3575 296.087 52.0332C295.879 52.4491 295.723 52.761 295.619 52.9689C295.411 53.3848 294.839 54.5544 293.904 56.4778C292.968 58.3492 292.292 59.6748 291.876 60.4545C291.461 61.1823 290.759 62.3779 289.771 64.0414C288.835 65.7048 288.004 66.9784 287.276 67.8621C286.6 68.7459 285.742 69.7595 284.703 70.9032C283.715 72.0988 282.675 73.0605 281.584 73.7882C280.492 74.568 279.322 75.1918 278.075 75.6596C275.528 76.5433 273.058 76.5693 270.667 75.7376C268.328 74.9579 266.353 73.5023 264.741 71.371C263.13 69.3437 261.986 66.7705 261.31 63.6515C260.634 60.5325 260.349 57.3615 260.453 54.1386C260.66 48.4724 261.856 42.7802 264.039 37.0621C266.223 31.2919 269.082 26.0156 272.617 21.2332C275.32 17.6463 278.413 14.6313 281.896 12.1881C285.43 9.74486 289.173 8.26333 293.124 7.7435C296.243 7.32763 298.738 7.92544 300.61 9.53692C302.533 11.1484 303.443 13.2797 303.339 15.9309C303.235 19.6737 301.519 23.6504 298.192 27.861C294.917 32.0197 291.357 34.8268 287.51 36.2823C285.275 37.166 283.481 36.8021 282.13 35.1907C280.83 33.5272 280.726 31.6298 281.818 29.4985L282.286 28.8747V28.9527C281.818 29.6804 281.766 30.4082 282.13 31.136C282.389 31.7078 282.831 32.0197 283.455 32.0717C284.131 32.1236 284.807 31.9937 285.482 31.6818C286.21 31.3699 286.834 31.058 287.354 30.7461C287.874 30.4342 288.29 30.1483 288.601 29.8884C292.084 27.0813 294.917 23.7024 297.101 19.7516C297.621 18.9199 297.932 18.0622 298.036 17.1785C298.14 16.2947 297.932 15.437 297.413 14.6053C296.893 14.0335 296.217 13.7216 295.385 13.6696C294.606 13.6176 293.774 13.7736 292.89 14.1374C292.006 14.5013 291.227 14.8912 290.551 15.3071C289.875 15.7229 289.251 16.1388 288.679 16.5547C283.429 20.5574 279.011 25.9116 275.424 32.6175C271.837 39.3233 269.576 46.0812 268.64 52.891C268.484 54.8143 268.354 56.8937 268.25 59.1289C268.146 61.3122 268.432 63.5735 269.108 65.9128C269.784 68.2 270.823 69.9155 272.227 71.0591C273.734 72.2027 275.294 72.6446 276.905 72.3847C278.569 72.1248 280.128 71.371 281.584 70.1234C283.091 68.9278 284.443 67.3423 285.638 65.3669C288.55 60.6365 291.383 55.4901 294.138 49.9279C294.502 49.1482 294.787 48.7063 294.995 48.6023C295.203 48.4464 295.619 48.5244 296.243 48.8363ZM271.135 39.1674C271.395 38.7515 271.499 38.4136 271.447 38.1537C271.447 38.2577 271.369 38.4136 271.213 38.6216C271.057 38.7775 271.031 38.9594 271.135 39.1674ZM278.387 25.5997C278.907 25.1319 279.167 24.742 279.167 24.4301C278.647 24.69 278.387 25.0799 278.387 25.5997ZM281.038 14.6053C280.622 14.7093 280.388 14.9172 280.336 15.2291C280.804 15.2291 281.038 15.0212 281.038 14.6053ZM262.246 56.1659C263.182 41.4546 268.562 28.4068 278.387 17.0225C267.834 28.3549 262.454 41.4027 262.246 56.1659ZM265.989 44.3917C266.301 43.8719 266.431 43.2741 266.379 42.5983C265.963 43.1181 265.833 43.7159 265.989 44.3917ZM283.923 14.9172C280.856 16.5807 277.503 20.1935 273.864 25.7557C270.277 31.3179 268.146 35.9704 267.47 39.7132C271.369 29.4725 276.853 21.2072 283.923 14.9172Z" fill="black"/>
<path d="M241.145 48.2125C241.56 48.4204 241.794 48.6803 241.846 48.9922C241.95 49.3041 241.95 49.616 241.846 49.9279C241.742 50.2398 241.56 50.6817 241.3 51.2535C239.377 55.3082 236.83 58.973 233.659 62.248C230.02 65.7828 226.303 67.0824 222.508 66.1467C220.637 65.7308 219.13 64.5352 217.986 62.5599C216.894 60.5845 216.452 58.2193 216.66 55.4642C217.024 50.3698 219.208 45.0675 223.21 39.5573C227.161 34.203 231.138 32.0457 235.14 33.0854C235.296 33.1373 235.478 33.1893 235.686 33.2413C236.986 33.7092 237.974 34.5669 238.649 35.8145C239.377 37.0101 239.585 38.2837 239.273 39.6353C238.389 43.2741 236.466 46.2111 233.503 48.4464C230.54 50.8376 227.707 51.9813 225.004 51.8773C224.536 51.8253 224.224 52.0592 224.068 52.5791C223.444 54.0866 223.028 55.802 222.82 57.7254C222.612 59.6488 222.638 61.1303 222.898 62.17C223.366 63.7815 224.406 64.3273 226.017 63.8075C228.305 63.0277 230.722 61.2083 233.269 58.3492C234.621 56.7897 236.544 53.8787 239.039 49.616C239.091 49.5641 239.169 49.4341 239.273 49.2262C239.429 49.0182 239.507 48.8883 239.507 48.8363C239.559 48.7843 239.637 48.6803 239.741 48.5244C239.845 48.3684 239.923 48.2905 239.975 48.2905C240.027 48.2385 240.105 48.1865 240.209 48.1345C240.313 48.0825 240.391 48.0565 240.443 48.0565C240.547 48.0565 240.651 48.0825 240.755 48.1345C240.859 48.1345 240.989 48.1605 241.145 48.2125ZM231.164 35.8925C230.54 35.9444 230.098 36.2563 229.838 36.8282C230.462 36.7242 230.904 36.4123 231.164 35.8925ZM228.045 36.3603C227.629 36.4123 227.369 36.6982 227.265 37.218C227.681 36.9581 227.941 36.6722 228.045 36.3603ZM234.439 38.0758C233.087 38.6996 231.424 40.311 229.448 42.9102C227.473 45.5094 226.433 47.4327 226.329 48.6803C230.852 46.1332 233.555 42.5983 234.439 38.0758ZM225.705 38.7775C225.134 39.0894 224.77 39.5833 224.614 40.2591C225.186 39.8952 225.55 39.4013 225.705 38.7775ZM219.701 49.0702L221.885 44.7816C220.793 46.0292 220.065 47.4587 219.701 49.0702ZM222.431 43.456C223.002 42.9882 223.314 42.4164 223.366 41.7406C222.846 42.2084 222.534 42.7802 222.431 43.456Z" fill="black"/>
<path d="M220.295 48.3684C221.075 48.7323 221.257 49.3821 220.841 50.3178C217.099 59.9347 213.954 67.3163 211.406 72.4626C210.315 74.7499 209.249 76.1275 208.209 76.5953C206.078 77.479 204.077 77.2451 202.205 75.8935C201.01 75.0618 200.126 73.9182 199.554 72.4626C198.982 71.0591 198.67 69.6296 198.618 68.174C198.566 66.7705 198.696 65.133 199.008 63.2616C199.32 61.3382 199.632 59.7787 199.944 58.5831C200.308 57.3875 200.75 56.0099 201.27 54.4504C202.933 49.668 204.96 45.0415 207.352 40.5709C207.612 40.0511 208.339 38.5176 209.535 35.9704C210.783 33.4232 211.796 31.4738 212.576 30.1223C213.044 29.2905 213.122 28.9007 212.81 28.9527C212.082 29.3685 211.484 29.9143 211.016 30.5901C208.573 33.2413 205.558 37.4259 201.971 43.1441C198.8 48.2904 194.824 55.5681 190.041 64.977C189.989 65.029 189.911 65.159 189.807 65.3669C189.755 65.5229 189.703 65.6528 189.651 65.7568C189.287 66.3286 188.768 66.7185 188.092 66.9264C187.468 67.1344 186.844 67.1344 186.22 66.9264C186.065 66.8225 185.935 66.6665 185.831 66.4586C185.779 66.3026 185.779 66.1467 185.831 65.9907C185.883 65.9387 186.039 65.3669 186.298 64.2753C186.039 64.4312 185.805 64.7431 185.597 65.211C185.389 65.6268 185.155 65.9127 184.895 66.0687C184.791 66.0687 184.687 66.0167 184.583 65.9127C184.531 65.8088 184.505 65.7048 184.505 65.6008C184.453 65.5489 184.427 65.4969 184.427 65.4449C184.427 65.185 184.401 65.029 184.349 64.977C184.297 64.9251 184.115 65.003 183.803 65.211C183.595 65.3149 183.413 65.3149 183.257 65.211C183.153 65.055 183.101 64.8731 183.101 64.6651C183.153 64.3532 183.231 64.0673 183.335 63.8074C185.311 58.921 187.65 53.5407 190.353 47.6666C192.692 42.6762 194.356 39.0894 195.344 36.9061C195.603 36.3343 195.837 35.7105 196.045 35.0347C196.149 34.7228 196.097 34.5668 195.889 34.5668C195.681 34.5668 195.473 34.6448 195.266 34.8008C194.486 35.3206 193.784 35.9444 193.16 36.6722C189.417 40.6749 186.168 45.0675 183.413 49.8499C180.71 54.6844 178.293 59.6748 176.162 64.8211C176.006 65.185 175.876 65.4709 175.772 65.6788C175.668 65.8868 175.564 66.0687 175.46 66.2246C175.408 66.3286 175.33 66.3546 175.226 66.3026C175.174 66.3026 175.096 66.2766 174.992 66.2246C174.836 66.1207 174.706 66.0947 174.602 66.1467C174.55 66.1467 174.446 66.1727 174.29 66.2246C174.134 66.3286 174.03 66.4066 173.978 66.4586C173.303 66.6145 172.861 66.6145 172.653 66.4586C172.497 66.3026 172.445 65.8608 172.497 65.133C172.497 65.133 172.497 64.9511 172.497 64.5872C172.341 64.5352 172.237 64.5352 172.185 64.5872C172.133 64.6392 172.081 64.7431 172.029 64.8991C171.977 65.003 171.951 65.055 171.951 65.055C171.639 65.5749 171.431 65.8348 171.327 65.8348C171.223 65.8348 170.989 65.5749 170.625 65.055C170.47 64.7951 170.314 64.7951 170.158 65.055C169.846 65.4189 169.534 65.4709 169.222 65.211C168.91 64.9511 168.832 64.6132 168.988 64.1973C170.236 59.8307 172.133 54.3465 174.68 47.7446C174.836 47.2248 175.2 46.2111 175.772 44.7036C176.344 43.1961 176.76 42.0784 177.019 41.3507C177.331 40.6229 177.721 39.6612 178.189 38.4656C178.709 37.27 179.203 36.1783 179.671 35.1906C180.138 34.203 180.632 33.2413 181.152 32.3056C181.672 31.3699 182.218 31.2399 182.79 31.9157C182.894 32.0197 183.101 31.9937 183.413 31.8377C183.569 31.7338 183.725 31.6558 183.881 31.6038C184.089 31.5518 184.219 31.5778 184.271 31.6818C184.375 31.7857 184.427 31.9417 184.427 32.1496C184.479 32.3056 184.531 32.4355 184.583 32.5395C184.635 32.5915 184.713 32.5915 184.817 32.5395C185.441 32.1756 185.961 32.2276 186.376 32.6954C186.428 32.6954 186.584 32.9034 186.844 33.3192C187.104 33.6831 187.338 33.943 187.546 34.099C187.858 34.2549 187.884 34.5928 187.624 35.1127C185.025 40.6749 183.699 43.482 183.647 43.534C184.895 41.5066 186.246 39.5832 187.702 37.7638C189.106 35.9444 190.665 34.2549 192.38 32.6954C193.94 31.1359 195.811 30.5381 197.995 30.902C199.138 31.11 200.022 31.7338 200.646 32.7734C201.27 33.7611 201.452 34.8268 201.192 35.9704C200.828 37.5819 200.386 39.1674 199.866 40.7269C204.389 33.3972 207.949 28.6927 210.549 26.6134C212.16 25.2618 213.876 24.794 215.695 25.2099C217.566 25.6257 218.762 26.8213 219.282 28.7967C219.438 29.4205 219.542 30.0703 219.594 30.7461C219.646 31.4219 219.646 32.0457 219.594 32.6175C219.594 33.1373 219.49 33.7871 219.282 34.5668C219.126 35.3466 218.996 35.9184 218.892 36.2823C218.84 36.6462 218.632 37.27 218.268 38.1537C217.904 39.0374 217.67 39.5832 217.566 39.7912C217.514 39.9991 217.254 40.5709 216.787 41.5066C216.371 42.3903 216.163 42.8842 216.163 42.9881C212.628 50.6297 210.081 56.8157 208.521 61.5462C207.638 63.9374 207.066 66.4066 206.806 68.9538C206.702 69.6296 206.65 70.4093 206.65 71.293C206.65 72.2287 206.78 72.8525 207.04 73.1644C207.612 72.6966 208.027 72.1507 208.287 71.5269C210.887 66.7445 213.2 61.8581 215.227 56.8677C216.527 53.6967 217.54 51.2795 218.268 49.616C218.58 48.8362 218.84 48.3944 219.048 48.2904C219.256 48.1345 219.672 48.1605 220.295 48.3684ZM177.253 45.6393C177.929 44.4956 178.241 43.6639 178.189 43.1441C177.981 43.352 177.825 43.5859 177.721 43.8459C177.617 44.0538 177.513 44.4177 177.409 44.9375C177.305 45.4054 177.253 45.6393 177.253 45.6393ZM178.657 47.2767C179.281 46.2891 179.904 44.9115 180.528 43.1441C181.204 41.3247 181.568 39.9991 181.62 39.1674C180.424 41.7665 179.437 44.4697 178.657 47.2767ZM182.01 34.3329C182.27 33.9171 182.374 33.4492 182.322 32.9294C180.762 35.9964 179.411 39.1414 178.267 42.3643C178.215 42.6242 178.189 42.8582 178.189 43.0661C178.345 43.0141 178.449 42.9361 178.501 42.8322C178.605 42.7282 178.683 42.5723 178.735 42.3643C178.839 42.1044 178.891 41.9485 178.891 41.8965C179.307 40.9608 179.853 39.6352 180.528 37.9198C181.256 36.2043 181.75 35.0087 182.01 34.3329ZM189.963 51.9552C189.391 52.579 189.054 53.2808 188.95 54.0606C189.521 53.4887 189.859 52.787 189.963 51.9552ZM187.234 62.4039C187.234 62.2479 187.286 62.066 187.39 61.8581C187.494 61.6501 187.546 61.4942 187.546 61.3902C187.598 61.2862 187.598 61.0783 187.546 60.7664C187.494 60.8184 187.39 61.0263 187.234 61.3902C187.13 61.7541 187.13 62.092 187.234 62.4039ZM188.638 58.895C188.638 58.895 188.794 58.6091 189.106 58.0373C189.417 57.4655 189.547 57.0236 189.495 56.7117C188.872 57.2835 188.586 58.0113 188.638 58.895ZM189.573 56.5558C190.613 55.2042 191.263 53.6967 191.523 52.0332C191.367 52.3971 191.133 52.865 190.821 53.4368C190.509 54.0086 190.249 54.5544 190.041 55.0742C189.833 55.5421 189.677 56.0359 189.573 56.5558ZM190.743 50.0838C191.367 49.3561 191.783 48.4984 191.991 47.5107C191.367 48.2384 190.951 49.0962 190.743 50.0838ZM192.38 51.0195C192.432 50.8636 192.536 50.5777 192.692 50.1618C192.9 49.746 193.056 49.4341 193.16 49.2261C192.536 49.642 192.277 50.2398 192.38 51.0195ZM210.237 52.657C210.289 52.5531 210.393 52.3971 210.549 52.1892C210.705 51.9292 210.809 51.7473 210.861 51.6433C210.964 51.4874 211.042 51.3055 211.094 51.0975C211.146 50.8896 211.146 50.6817 211.094 50.4737C210.523 51.0975 210.237 51.8253 210.237 52.657ZM212.966 46.1071C212.446 46.9908 212.212 47.5627 212.264 47.8226C212.576 47.6666 212.81 47.0948 212.966 46.1071ZM212.264 47.9785C211.536 48.6023 211.172 49.3821 211.172 50.3178C211.848 49.694 212.212 48.9142 212.264 47.9785ZM210.861 36.9841C207.742 43.378 205.844 47.3287 205.168 48.8362C205.064 49.2001 204.752 50.0838 204.233 51.4874C203.713 52.839 203.271 53.8526 202.907 54.5284C203.063 54.5284 203.193 54.4764 203.297 54.3725C203.401 54.2685 203.479 54.1905 203.531 54.1385C203.583 54.0866 203.635 53.9826 203.687 53.8266C203.739 53.6187 203.791 53.4888 203.843 53.4368C203.999 53.0209 204.337 52.1632 204.856 50.8636C205.428 49.564 205.87 48.5763 206.182 47.9005C206.754 46.6529 207.586 44.9115 208.677 42.6762C209.769 40.389 210.497 38.8555 210.861 38.0757C211.276 37.192 211.458 36.6202 211.406 36.3603C211.094 36.4642 210.913 36.6722 210.861 36.9841ZM202.361 56.4778C202.361 56.5818 202.309 56.7897 202.205 57.1016C202.101 57.4135 202.023 57.6474 201.971 57.8034C201.971 57.9073 201.997 58.1412 202.049 58.5051C202.361 57.8293 202.595 57.1276 202.751 56.3998C203.115 55.776 203.141 55.1782 202.829 54.6064C202.881 54.8663 202.829 55.2302 202.673 55.698C202.517 56.1139 202.413 56.3738 202.361 56.4778ZM200.802 71.5269C200.698 68.6679 200.854 65.8348 201.27 63.0277C201.53 61.5202 201.789 60.0386 202.049 58.5831C201.841 58.6351 201.711 58.791 201.659 59.051C200.724 62.3779 200.256 65.7828 200.256 69.2657C200.204 70.0974 200.386 70.8512 200.802 71.5269ZM205.48 70.4353C205.636 69.7075 205.636 68.9798 205.48 68.252C205.324 68.9798 205.324 69.7075 205.48 70.4353ZM205.792 67.0824C206 66.8225 206.026 66.5365 205.87 66.2246C205.662 66.4846 205.636 66.7705 205.792 67.0824ZM202.673 69.9674C202.829 64.0933 204.077 58.4791 206.416 53.1249C206.988 51.7733 207.82 49.8499 208.911 47.3547C210.055 44.8595 210.809 43.2221 211.172 42.4423C211.484 41.8185 211.692 41.1687 211.796 40.4929C211.432 40.9608 211.25 41.2207 211.25 41.2727C208.547 46.2631 206.312 51.4354 204.545 56.7897C203.245 60.4805 202.465 64.2753 202.205 68.174C202.049 69.1097 202.179 69.9934 202.595 70.8252C202.595 70.7212 202.595 70.5912 202.595 70.4353C202.647 70.3313 202.673 70.2274 202.673 70.1234C202.673 70.0714 202.673 70.0194 202.673 69.9674Z" fill="black"/>
<path d="M175.388 48.9142C176.012 49.1222 176.376 49.3301 176.48 49.538C176.584 49.694 176.506 50.1618 176.246 50.9416C173.751 56.0359 170.917 61.2603 167.747 66.6145C166.343 68.7978 164.731 69.8635 162.912 69.8115C161.145 69.7595 159.819 68.7978 158.935 66.9264C157.74 64.4312 157.636 61.1823 158.623 57.1796C160.859 48.2904 164.342 39.9471 169.072 32.1496C169.28 31.7338 169.566 31.4479 169.93 31.2919C170.346 31.084 170.762 31.058 171.177 31.2139C172.737 31.6298 173.777 32.3836 174.296 33.4752C174.556 34.151 174.582 34.8008 174.374 35.4246C173.751 37.4 172.997 39.3233 172.113 41.1947C169.15 47.6926 166.629 54.3465 164.55 61.1563C163.926 63.1317 163.744 64.6652 164.004 65.7568C164.16 66.2766 164.42 66.3286 164.783 65.9128C166.187 64.0933 167.435 62.144 168.526 60.0646C169.046 59.025 169.878 57.4135 171.021 55.2302C172.165 52.9949 173.023 51.3055 173.595 50.1618C173.647 50.0579 173.725 49.9279 173.829 49.772C173.933 49.564 173.985 49.4341 173.985 49.3821C174.037 49.3301 174.088 49.2521 174.14 49.1482C174.244 48.9922 174.322 48.9142 174.374 48.9142C174.426 48.8623 174.504 48.8363 174.608 48.8363C174.712 48.7843 174.816 48.7843 174.92 48.8363C175.076 48.8363 175.232 48.8623 175.388 48.9142ZM159.481 63.6515V60.2986C159.169 61.4422 159.169 62.5598 159.481 63.6515ZM160.885 63.5735C160.885 63.1057 160.937 62.3779 161.041 61.3902C161.197 60.4025 161.275 59.6488 161.275 59.1289C160.963 60.0127 160.755 60.8964 160.651 61.7801C160.547 62.4039 160.625 63.0017 160.885 63.5735ZM163.926 51.2535C164.809 48.9662 165.927 46.1071 167.279 42.6763L166.967 42.5983C165.615 45.3534 164.602 48.2385 163.926 51.2535ZM167.591 38.2317C167.85 37.8678 167.954 37.4519 167.902 36.9841C166.655 38.8035 165.719 40.8049 165.095 42.9882C165.511 42.4163 165.979 41.5586 166.499 40.415C167.071 39.2194 167.435 38.4916 167.591 38.2317ZM168.604 35.7365C168.24 35.9964 168.032 36.3603 167.98 36.8281C168.344 36.7242 168.552 36.3603 168.604 35.7365ZM165.017 43.1441C164.394 43.8719 164.212 44.5217 164.472 45.0935C164.524 44.9375 164.628 44.6516 164.783 44.2358C164.991 43.7679 165.069 43.404 165.017 43.1441ZM164.472 45.2494C164.16 45.4054 163.978 45.5353 163.926 45.6393C163.874 45.7433 163.848 46.0032 163.848 46.419C164.108 45.9512 164.316 45.5613 164.472 45.2494ZM181.86 18.9719C182.016 19.0759 181.938 19.4657 181.626 20.1415C180.171 23.5204 179.235 25.7037 178.819 26.6914C178.611 27.1073 178.325 27.4971 177.961 27.861C177.441 28.3809 177.155 28.3029 177.104 27.6271C177.052 27.4711 176.87 27.4192 176.558 27.4711C175.622 27.6271 175.05 27.6011 174.842 27.3932C174.634 27.1333 174.712 26.5355 175.076 25.5998C175.232 25.1319 175.284 24.846 175.232 24.742C175.076 24.846 174.894 25.0279 174.686 25.2879C174.53 25.5478 174.374 25.7557 174.218 25.9117C174.114 26.0156 173.959 26.0156 173.751 25.9117C173.491 25.7037 173.361 25.5218 173.361 25.3658C173.413 25.2099 173.517 25.0019 173.673 24.742C173.829 24.4301 173.907 24.1962 173.907 24.0403C173.907 23.9363 173.907 23.8583 173.907 23.8063C173.803 23.8583 173.699 23.8843 173.595 23.8843C173.491 23.9363 173.361 24.0922 173.205 24.3522C173.101 24.5601 172.997 24.69 172.893 24.742C172.841 24.794 172.685 24.768 172.425 24.6641C172.113 24.4561 172.139 23.9883 172.503 23.2605C172.763 22.7407 173.231 21.831 173.907 20.5314C174.582 19.1798 175.128 18.1402 175.544 17.4124C175.544 17.3604 175.57 17.3084 175.622 17.2564C175.778 16.9965 175.882 16.8146 175.934 16.7106C176.038 16.5547 176.168 16.3987 176.324 16.2428C176.48 16.0868 176.662 16.0348 176.87 16.0868C177.078 16.1388 177.337 16.2947 177.649 16.5547C178.065 16.2428 178.559 16.2688 179.131 16.6326C179.703 16.9965 180.119 17.1785 180.378 17.1785C180.638 17.1265 180.872 17.3864 181.08 17.9582C181.34 18.478 181.6 18.8159 181.86 18.9719ZM174.608 22.4808C174.608 22.4808 174.686 22.4028 174.842 22.2468C174.998 22.0389 175.076 21.9089 175.076 21.857C175.076 21.753 175.076 21.5451 175.076 21.2332C174.66 21.805 174.504 22.2208 174.608 22.4808ZM175.934 19.9856C176.194 19.7256 176.35 19.4137 176.402 19.0499C176.402 18.9979 176.376 18.9459 176.324 18.8939C176.116 19.1018 175.934 19.3098 175.778 19.5177C175.622 19.7256 175.622 19.9076 175.778 20.0635C175.882 20.0116 175.934 19.9856 175.934 19.9856Z" fill="black"/>
<path d="M157.173 21.701C157.433 21.2851 157.485 21.0512 157.329 20.9992C157.225 20.9473 157.121 20.9732 157.017 21.0772C155.042 23.1046 153.222 25.2359 151.559 27.4712C144.957 35.9964 139.265 45.0935 134.482 54.7624C132.455 58.6091 130.506 62.8198 128.634 67.3943C128.01 68.8498 127.153 69.3437 126.061 68.8758C124.969 68.356 124.242 66.9265 123.878 64.5872C122.058 51.9553 127.413 33.5012 139.94 9.22503C140.46 8.23735 140.876 7.43161 141.188 6.80781C141.344 6.44392 141.266 6.28797 140.954 6.33996C140.798 6.33996 140.538 6.46992 140.174 6.72983C139.603 7.19768 138.563 8.49726 137.055 10.6286C135.548 12.7599 134.482 14.3714 133.858 15.463C124.709 31.7858 118.082 44.8855 113.975 54.7624C109.296 66.0947 106.749 72.3067 106.333 73.3984C106.073 74.0742 105.32 74.594 104.072 74.9579C102.876 75.3737 101.733 75.4777 100.641 75.2698C99.5495 75.1138 99.0036 74.646 99.0036 73.8662C99.3675 61.8061 101.603 50.1359 105.709 38.8555C108.049 32.0977 110.908 25.5998 114.287 19.3618C114.339 19.2578 114.885 18.2441 115.924 16.3207C115.56 16.1648 115.222 16.2168 114.911 16.4767C108.673 20.4274 103.344 25.9376 98.9257 33.0074C97.1582 35.8664 96.3525 38.2057 96.5085 40.0251C96.6644 41.6886 97.886 42.4683 100.173 42.3644C100.641 42.3124 101.135 42.2084 101.655 42.0525C101.759 42.0005 101.811 42.0005 101.811 42.0525C101.655 42.2604 101.239 42.5463 100.563 42.9102C99.0036 43.7939 97.3142 44.1838 95.4948 44.0798C93.7273 43.9239 92.2978 43.1441 91.2062 41.7406C89.4907 39.4013 89.4647 36.3343 91.1282 32.5395C94.819 23.8063 100.667 16.8666 108.673 11.7202C111.22 10.1087 113.923 8.91313 116.782 8.13338C119.693 7.30165 122.318 7.30165 124.657 8.13338C125.853 8.54924 126.659 9.38098 127.075 10.6286C127.542 11.8242 127.464 12.9938 126.841 14.1374C119.147 28.3809 113.559 41.0648 110.076 52.1892C109.816 53.0209 109.4 54.4765 108.828 56.5558C109.452 55.3602 109.894 54.4765 110.154 53.9046C116.964 38.3616 122.656 26.6914 127.231 18.8939C131.545 11.4603 135.34 6.26198 138.615 3.29894C139.862 2.1553 141.084 1.29758 142.28 0.725766C143.527 0.153951 144.593 -0.0799734 145.477 0.0239917C146.36 0.0759743 147.088 0.361882 147.66 0.881714C148.232 1.40155 148.492 2.20729 148.44 3.29894C148.44 4.39059 148.154 5.63818 147.582 7.04173C141.396 21.857 137.341 31.9677 135.418 37.374C133.702 42.2604 131.987 47.5107 130.272 53.1249C130.583 52.9689 130.817 52.709 130.973 52.3451C136.588 40.7009 143.579 29.9663 151.949 20.1415C153.404 18.3741 155.276 16.6326 157.563 14.9172C159.85 13.2017 161.825 12.448 163.489 12.6559C164.373 12.7599 165.074 13.0458 165.594 13.5136C166.114 13.9815 166.4 14.6573 166.452 15.541C166.504 16.3727 166.478 17.2045 166.374 18.0362C166.322 18.8159 166.062 19.8556 165.594 21.1552C165.178 22.4028 164.84 23.3905 164.581 24.1182C164.321 24.846 163.905 25.8597 163.333 27.1592C162.813 28.4068 162.475 29.2126 162.319 29.5765C159.304 37.0101 156.679 44.6776 154.444 52.5791C152.26 60.4805 150.805 66.7185 150.077 71.293C150.025 71.449 149.973 71.6829 149.921 71.9948C149.765 72.9305 149.661 73.6323 149.609 74.1001C149.557 74.568 149.531 75.1918 149.531 75.9715C149.531 76.8033 149.635 77.4531 149.843 77.9209C150.051 78.4407 150.389 78.9606 150.857 79.4804C151.377 80.0522 152.027 80.5201 152.806 80.884C152.962 80.9879 153.04 81.0659 153.04 81.1179C151.845 81.4298 150.649 81.5078 149.453 81.3518C146.438 80.9359 144.359 79.6883 143.215 77.609C142.072 75.5297 141.578 72.7226 141.734 69.1877C142.046 62.9497 143.137 56.7377 145.009 50.5517C146.88 44.3137 149.505 37.5819 152.884 30.3562C153.664 28.6928 155.094 25.8077 157.173 21.701ZM114.755 35.1127C114.755 35.1647 114.651 35.3726 114.443 35.7365C114.235 36.1004 114.131 36.3343 114.131 36.4383C114.183 36.4902 114.235 36.7242 114.287 37.14C113.923 37.296 113.663 37.5559 113.507 37.9198C113.351 38.2317 113.351 38.5696 113.507 38.9335C112.987 39.1414 112.753 39.7132 112.805 40.6489C113.169 40.1291 113.377 39.5573 113.429 38.9335C113.845 38.3616 114.105 37.7378 114.209 37.0621C114.261 37.0101 114.391 36.8021 114.599 36.4383C114.807 36.0744 114.885 35.8664 114.833 35.8145C114.833 35.7105 114.807 35.4506 114.755 35.0347C114.963 34.9308 115.144 34.7748 115.3 34.5669C115.456 34.3589 115.56 34.177 115.612 34.021C115.664 33.8651 115.742 33.6312 115.846 33.3193C115.95 33.0074 116.002 32.7994 116.002 32.6955C116.418 32.1237 116.626 31.4999 116.626 30.8241C116.574 30.928 116.47 31.136 116.314 31.4479C116.158 31.7078 116.08 31.8637 116.08 31.9157C116.08 31.9157 116.054 32.0457 116.002 32.3056C115.95 32.5655 115.976 32.6955 116.08 32.6955C115.82 32.9034 115.612 33.1373 115.456 33.3972C115.3 33.6052 115.144 33.9171 114.989 34.3329C114.885 34.7488 114.807 35.0087 114.755 35.1127ZM105.554 47.0428C106.073 46.2631 106.255 45.4314 106.099 44.5477C106.515 44.0798 106.749 43.7679 106.801 43.612C106.853 43.404 106.853 43.0141 106.801 42.4423C106.437 43.1181 106.229 43.8199 106.177 44.5477C106.125 44.6516 106.047 44.8336 105.943 45.0935C105.839 45.3534 105.761 45.5613 105.709 45.7173C105.658 45.8212 105.606 46.0292 105.554 46.3411C105.502 46.601 105.502 46.8349 105.554 47.0428ZM156.783 39.4013C157.303 39.0894 157.615 38.3876 157.719 37.296C157.199 37.9198 156.887 38.6216 156.783 39.4013C156.263 39.9731 156.055 40.6229 156.159 41.3507C155.899 41.5586 155.769 41.6626 155.769 41.6626C153.794 46.497 152.183 51.4614 150.935 56.5558C150.051 59.6228 149.583 61.2603 149.531 61.4682C149.479 61.6242 148.934 64.4572 147.894 69.9675C147.894 70.1754 147.868 70.4613 147.816 70.8252C147.764 71.2411 147.738 71.6049 147.738 71.9168C147.738 72.2807 147.816 72.6446 147.972 73.0085C147.972 72.8006 147.998 72.4367 148.05 71.9168C148.102 71.449 148.102 71.0591 148.05 70.7472C148.05 70.4873 147.972 70.2014 147.816 69.8895C148.128 69.8895 148.336 69.6556 148.44 69.1877C149.116 65.0291 149.921 61.2343 150.857 57.8034C150.961 57.3875 150.961 56.9457 150.857 56.4778C151.013 56.4778 151.143 56.4258 151.247 56.3219C151.351 56.1659 151.403 56.0619 151.403 56.01C151.455 55.906 151.507 55.776 151.559 55.6201C151.611 55.4122 151.637 55.2822 151.637 55.2302C152.52 52.0072 153.872 47.9526 155.691 43.0661C156.003 42.4943 156.133 41.8965 156.081 41.2727C156.705 40.8049 156.939 40.1811 156.783 39.4013ZM102.513 57.9593C102.72 57.8034 102.876 57.5955 102.98 57.3355C103.084 57.0236 103.136 56.7897 103.136 56.6338C103.188 56.4778 103.214 56.1919 103.214 55.776C103.266 55.3602 103.292 55.1262 103.292 55.0743C102.824 56.01 102.59 56.9976 102.59 58.0373C102.175 58.7131 102.123 59.4149 102.435 60.1426C102.123 60.2986 101.967 60.3766 101.967 60.3766C101.291 63.1317 100.927 65.9128 100.875 68.7199C101.551 64.8731 102.045 62.014 102.357 60.1426C102.565 59.4149 102.616 58.6871 102.513 57.9593ZM159.2 22.7927L158.888 22.5587C158.628 23.0786 158.473 23.3385 158.421 23.3385C154.99 30.4602 152.572 35.7625 151.169 39.2454C147.582 48.0305 145.191 55.932 143.995 62.9497C143.371 66.5886 143.215 70.2274 143.527 73.8662C143.787 73.2944 143.891 72.7226 143.839 72.1508C143.995 65.3929 145.061 58.7911 147.036 52.3451C149.375 44.8076 152.286 37.4779 155.769 30.3562C155.873 30.0443 157.017 27.5231 159.2 22.7927ZM102.435 68.5639C102.85 68.1481 103.058 67.6542 103.058 67.0824C103.786 61.988 104.852 56.9976 106.255 52.1112C108.854 42.9102 112.857 32.5915 118.263 21.1552C118.731 20.5314 118.887 19.8556 118.731 19.1278C110.258 35.7105 104.826 52.1892 102.435 68.5639ZM145.477 71.6049C145.737 71.501 145.867 71.2151 145.867 70.7472C146.438 64.3013 147.712 57.9853 149.687 51.7993C150.987 47.5887 153.456 41.1168 157.095 32.3836C157.147 32.2796 157.199 32.1496 157.251 31.9937C157.355 31.7858 157.433 31.6558 157.485 31.6038C157.537 31.4999 157.563 31.3439 157.563 31.136C157.615 30.8761 157.615 30.6681 157.563 30.5122C157.407 30.7201 157.251 30.954 157.095 31.2139C151.585 42.8582 147.92 53.5927 146.1 63.4176C145.633 66.1207 145.425 68.8498 145.477 71.6049ZM141.344 11.0964L141.032 10.8625C140.772 11.3823 140.642 11.6422 140.642 11.6422C137.107 18.764 134.612 24.0662 133.157 27.5491C129.518 36.2823 127.075 44.1578 125.827 51.1755C125.151 54.7624 124.943 58.3752 125.203 62.014C125.515 61.4942 125.619 60.9224 125.515 60.2986C125.723 53.5927 126.841 47.0169 128.868 40.5709C131.311 33.0853 134.3 25.7817 137.835 18.66C138.043 18.1921 139.213 15.671 141.344 11.0964ZM127.153 59.8307C127.413 59.7268 127.568 59.4409 127.62 58.973C128.192 52.5271 129.518 46.2111 131.597 40.0251C132.897 35.8664 135.418 29.4205 139.161 20.6873C139.161 20.6873 139.239 20.5054 139.395 20.1415C139.603 19.7776 139.681 19.5957 139.629 19.5957C139.629 19.5437 139.629 19.3098 139.629 18.8939C139.473 19.1018 139.317 19.3098 139.161 19.5177C133.547 31.11 129.804 41.8185 127.932 51.6434C127.413 54.3465 127.153 57.0756 127.153 59.8307ZM107.035 41.4287C109.218 35.9184 111.064 31.4219 112.571 27.939C114.131 24.4041 116.028 20.6094 118.263 16.5547C115.716 20.4534 113.663 24.1962 112.103 27.7831C110.596 31.3179 108.906 35.8664 107.035 41.4287ZM94.3252 33.7871L96.1186 30.2003L95.8067 30.0443C95.7547 30.1483 95.5987 30.4342 95.3388 30.902C95.0789 31.3179 94.897 31.6298 94.793 31.8377C94.689 32.0457 94.5851 32.3316 94.4811 32.6955C94.3771 33.0594 94.3252 33.4232 94.3252 33.7871ZM94.3252 28.8747L92.9996 31.6038L93.2335 31.7598C93.7014 30.8761 94.1952 29.9663 94.715 29.0306L94.3252 28.8747ZM132.377 43.378C132.845 42.7022 133.105 41.9485 133.157 41.1168C132.637 41.7406 132.377 42.4943 132.377 43.378ZM104.462 50.4737C103.994 51.2015 103.838 51.9813 103.994 52.813C104.046 52.6051 104.124 52.3191 104.228 51.9553C104.384 51.5914 104.462 51.3575 104.462 51.2535C104.514 51.0975 104.514 50.8376 104.462 50.4737ZM100.485 20.6873L99.7054 21.3891C99.8614 21.3371 99.9913 21.3111 100.095 21.3111C100.199 21.2592 100.303 21.1812 100.407 21.0772C100.511 20.9732 100.537 20.8433 100.485 20.6873ZM111.792 43.456C111.792 43.404 111.895 43.1701 112.103 42.7542C112.311 42.2864 112.311 42.0005 112.103 41.8965C112.103 41.8965 111.999 42.1304 111.792 42.5983C111.584 43.0141 111.584 43.3001 111.792 43.456ZM98.8477 22.9486C98.8997 22.8446 98.8737 22.7927 98.7697 22.7927C98.7177 22.7927 98.6658 22.7927 98.6138 22.7927C98.4578 22.9486 98.3539 23.1306 98.3019 23.3385H98.5358C98.6917 23.2345 98.7957 23.1046 98.8477 22.9486Z" fill="black"/>
<path d="M67.6344 43.3851C67.6344 60.7317 53.5722 74.7939 36.2257 74.7939C18.8791 74.7939 4.81689 60.7317 4.81689 43.3851C4.81689 26.0385 18.8791 11.9764 36.2257 11.9764C53.5722 11.9764 67.6344 26.0385 67.6344 43.3851Z" fill="#FFE019"/>
<path d="M45.0205 72.0646C39.6196 72.0646 36.9192 66.7792 36.9192 56.2086C36.9192 52.1074 37.5835 47.4141 38.912 42.1288C40.2695 36.8434 41.9013 32.2513 43.8075 28.3522C45.0494 25.8684 46.1035 23.89 46.97 22.4171C49.165 18.6625 52.1687 15.0667 55.9811 11.6298C58.1472 9.63695 60.4 8.64053 62.7394 8.64053C65.4542 9.13152 66.8117 11.3843 66.8117 15.3988C66.8117 18.1426 65.3965 22.6481 62.5661 28.9154C59.7646 35.1827 57.9595 39.0962 57.1508 40.6558C56.371 42.2154 55.7211 42.9952 55.2013 42.9952C54.9702 42.9952 54.7825 42.8941 54.6381 42.692C54.5225 42.4609 54.4648 42.2587 54.4648 42.0855C54.4648 41.8544 54.7536 41.089 55.3312 39.7894C61.6852 26.6482 64.8622 18.5903 64.8622 15.6154C64.8622 13.9403 64.6456 12.7273 64.2123 11.9764C63.7791 11.2254 63.0715 10.85 62.0895 10.85C59.9523 10.85 56.7464 13.4782 52.4719 18.7347L51.4322 19.9477C46.84 25.5507 43.2587 32.9444 40.6882 42.1288C39.3597 47.0387 38.6954 51.703 38.6954 56.1219C38.6954 62.1871 39.8651 66.2738 42.2045 68.3822C43.2443 69.2775 44.4573 69.7252 45.8436 69.7252C47.3455 69.7252 48.6307 69.3497 49.6993 68.5988C50.7679 67.8479 51.6921 67.0536 52.4719 66.2161L52.5153 66.0861C54.3926 64.2954 57.5551 60.0932 62.0029 53.4793C63.1004 51.9197 63.7358 50.981 63.9091 50.6633C64.1112 50.3745 64.3712 50.0423 64.6889 49.6669C66.2774 47.3275 67.1727 46.0422 67.3749 45.8112C67.6059 45.5513 67.8803 45.4213 68.198 45.4213C68.6601 45.4213 68.8912 45.5801 68.8912 45.8978C68.8912 46.1 67.707 47.8329 65.3387 51.0965C58.4071 60.6275 54.1615 66.3027 52.6019 68.1222C49.7715 70.7505 47.2444 72.0646 45.0205 72.0646Z" fill="black"/>
<path d="M30.9331 74.274C29.4601 74.274 28.7236 70.736 28.7236 63.66C28.7236 58.2014 29.5323 50.5189 31.1497 40.6125C31.5829 37.4066 32.0595 34.7351 32.5793 32.5979C32.9259 30.4606 33.3591 28.3811 33.879 26.3594C34.2545 25.0309 34.5577 23.7456 34.7888 22.5037C34.009 23.8034 33.3736 24.9587 32.8826 25.9695C27.1063 37.9843 22.7451 45.4646 19.7992 48.4105C18.9328 49.1903 18.023 49.5803 17.0699 49.5803C16.1457 49.5803 15.3803 49.1326 14.7738 48.2373C14.0229 46.7065 13.6474 44.3527 13.6474 41.1757C13.6474 38.894 13.7918 36.6413 14.0807 34.4174L12.3478 38.9663C9.95058 47.1109 7.87111 54.9378 6.10933 62.447C5.04071 67.0392 4.5064 69.3786 4.5064 69.4653C4.04429 71.5447 3.38001 72.5845 2.51356 72.5845C1.56047 72.4401 1.08392 72.0068 1.08392 71.2848C1.08392 70.7072 1.38718 69.5086 1.99369 67.689C4.9685 56.8584 8.33321 45.9267 12.0878 34.8939C13.6474 30.244 15.1637 25.6374 16.6367 21.0741C17.2432 19.4567 17.8064 18.648 18.3263 18.648C18.7884 18.6769 19.0194 19.1679 19.0194 20.121C19.0194 20.843 18.9472 21.5795 18.8028 22.3304L17.8064 26.9226C16.68 31.8325 16.1168 36.4824 16.1168 40.8724C16.1168 43.3851 16.4201 45.5224 17.0266 47.2842C17.8641 46.9376 18.5284 46.4466 19.0194 45.8112C20.088 44.8581 21.5032 42.9808 23.265 40.1793C25.0557 37.3778 28.6226 30.9372 33.9657 20.8575C35.9007 17.1895 37.1426 14.5757 37.6914 13.0161C38.2979 10.9944 39.0777 9.98354 40.0308 9.98354C40.4929 9.98354 40.724 10.3012 40.724 10.9366C40.724 11.7742 40.5073 12.8284 40.0741 14.0992C39.6698 15.37 37.778 22.9081 34.3989 36.7135C32.2328 44.2805 30.9908 52.5695 30.6732 61.5806L30.6298 64.3532C30.6298 66.606 30.7742 68.0356 31.0631 68.6421C31.4385 68.44 31.7562 68.3389 32.0161 68.3389C32.6804 68.3389 33.0703 68.8732 33.1859 69.9418C33.1859 72.83 32.4349 74.274 30.9331 74.274Z" fill="black"/>
<path d="M66.8112 15.399C66.8112 11.3845 65.454 9.13145 62.7391 8.64046C60.3998 8.64051 58.1466 9.63667 55.9806 11.6295L54.5887 12.9262C51.4299 15.9681 48.8897 19.1326 46.9692 22.4178L46.2859 23.6172C45.5657 24.9113 44.738 26.4887 43.8067 28.3513C41.9005 32.2503 40.2692 36.8433 38.9118 42.1286C37.5832 47.4139 36.9191 52.1073 36.9191 56.2084C36.9191 66.4485 39.4534 71.728 44.5217 72.0482L45.0209 72.0651C47.1058 72.0649 49.4578 70.9101 52.0756 68.6002L52.6024 68.1221C53.7722 66.7572 56.4519 63.2236 60.6428 57.5221L65.3389 51.0956C67.4099 48.2416 68.5759 46.5588 68.8356 46.0463L68.8906 45.8982C68.8906 45.5807 68.6603 45.4224 68.1989 45.4222C67.8812 45.4222 67.6049 45.5515 67.3739 45.8115L67.0925 46.1816C66.681 46.7502 65.8809 47.9132 64.6895 49.6677C64.3718 50.0431 64.1111 50.3753 63.9089 50.6641L63.6931 51.0173C63.39 51.4883 62.8266 52.3092 62.003 53.4796L60.3953 55.8467C56.7847 61.1063 54.1583 64.5203 52.5156 66.0871L52.4712 66.2162C51.6917 67.0533 50.7682 67.8474 49.7001 68.598L49.2876 68.8625C48.3053 69.4372 47.1576 69.7255 45.8438 69.7255V68.6425C47.1572 68.6424 48.2162 68.3159 49.0761 67.7117C50.0208 67.0478 50.8312 66.352 51.5214 65.6344L51.5722 65.4885L51.7668 65.3023C53.544 63.6072 56.6437 59.5071 61.104 52.8746L61.1166 52.8556C62.2337 51.2681 62.8232 50.3928 62.9591 50.1437L62.9866 50.0908L63.0226 50.0422C63.2383 49.7341 63.5033 49.3939 63.8137 49.0247C64.598 47.8698 65.2155 46.9715 65.6625 46.3297C66.0916 45.7138 66.4085 45.2712 66.5595 45.0986L66.5658 45.0922C66.9806 44.6256 67.5404 44.3392 68.1989 44.3392L68.4569 44.3497C68.732 44.3757 69.0463 44.4528 69.3306 44.648C69.7827 44.9589 69.9736 45.4379 69.9736 45.8982C69.9736 46.1163 69.9082 46.2886 69.8911 46.3339C69.8627 46.4097 69.8299 46.4803 69.8023 46.5349C69.7462 46.6458 69.6726 46.7705 69.5929 46.9009C69.4306 47.1661 69.1962 47.5227 68.8969 47.9607C68.296 48.84 67.4002 50.0986 66.2147 51.7323V51.7344C59.2962 61.2473 55.0181 66.9657 53.4231 68.8265L53.385 68.873L53.3385 68.9153C50.4435 71.6035 47.6593 73.148 45.0209 73.1482C43.4859 73.1482 42.0921 72.7691 40.8833 71.9805C39.6807 71.1957 38.7225 70.0447 37.981 68.5938C36.5137 65.7219 35.8361 61.5509 35.8361 56.2084C35.8361 51.9946 36.519 47.2094 37.8626 41.8642V41.86C39.2337 36.5212 40.8884 31.8566 42.8336 27.8775L42.8379 27.8669C44.0848 25.3731 45.1522 23.3707 46.0363 21.8678C48.2964 18.0026 51.3755 14.3232 55.255 10.8256C57.5652 8.70275 60.0659 7.55745 62.7391 7.5574H62.8364L62.9316 7.57433C64.5784 7.87216 65.872 8.73264 66.7202 10.1403C67.5406 11.5018 67.8942 13.2906 67.8942 15.399C67.8942 16.9324 67.5041 18.8676 66.7837 21.1612C66.0591 23.468 64.9782 26.2013 63.5535 29.3561C60.765 35.5944 58.9469 39.5356 58.1171 41.1386L58.1192 41.1408C57.7147 41.9497 57.3143 42.6202 56.9113 43.1038C56.5578 43.5281 55.9831 44.0785 55.2021 44.079C54.5917 44.079 54.0871 43.7831 53.7573 43.3217L53.7066 43.2519L53.6685 43.1757C53.5511 42.9407 53.4482 42.672 53.4041 42.3825L53.3808 42.0863L53.4168 41.7627C53.4361 41.664 53.4591 41.5765 53.4781 41.5109C53.5252 41.3484 53.5914 41.1611 53.6685 40.9567C53.8236 40.5456 54.0491 40.0062 54.3412 39.3491L54.3475 39.3342L54.356 39.3173C57.5279 32.7573 59.8979 27.4849 61.472 23.4924C62.2592 21.4958 62.8415 19.834 63.2257 18.5001C63.6156 17.1458 63.7799 16.2022 63.7799 15.6148C63.7798 13.9835 63.5591 13.0119 63.2743 12.5179C63.0635 12.1526 62.7462 11.9341 62.0897 11.9341C61.4179 11.9341 60.3339 12.3749 58.7686 13.6581C57.246 14.9063 55.4293 16.8159 53.3131 19.4182L53.2941 19.4393L52.2554 20.6536C47.7905 26.108 44.2709 33.3475 41.7315 42.4205C40.4259 47.2484 39.7791 51.8141 39.7791 56.1217C39.7791 62.1171 40.949 65.7769 42.9119 67.5615L43.2313 67.8154C43.9944 68.3691 44.8548 68.6425 45.8438 68.6425V69.7255L45.3319 69.7044C44.3249 69.6205 43.4152 69.2848 42.6031 68.6975L42.2054 68.3823C40.0123 66.4058 38.8458 62.6904 38.7087 57.2365L38.696 56.1217C38.696 51.7029 39.3602 47.0384 40.6887 42.1286C43.2591 32.9444 46.8404 25.55 51.4326 19.947L52.4712 18.7349C56.7457 13.4785 59.9525 10.851 62.0897 10.851L62.4451 10.8679C63.244 10.9501 63.8324 11.3196 64.2114 11.9764C64.6446 12.7272 64.8629 13.94 64.8629 15.6148L64.8524 15.9088C64.6602 19.0981 61.4867 27.0582 55.3312 39.789C54.7535 41.0887 54.4639 41.8553 54.4639 42.0863C54.464 42.2592 54.5223 42.461 54.6373 42.6913C54.7454 42.8427 54.8783 42.9388 55.035 42.9769L55.2021 42.9959C55.7218 42.995 56.3711 42.2147 57.1504 40.6563C57.959 39.0968 59.7643 35.183 62.5657 28.9161C65.2191 23.0407 66.6283 18.7129 66.7943 15.9342L66.8112 15.399Z" fill="black"/>
<path d="M40.7248 10.9357C40.7245 10.3011 40.4926 9.98387 40.0309 9.98376C39.0779 9.98376 38.2979 10.9955 37.6914 13.0172C37.1425 14.5768 35.9007 17.1899 33.9662 20.8567L30.2919 27.7358C26.9511 33.9301 24.6077 38.077 23.2647 40.1783C21.5029 42.9798 20.0878 44.8584 19.0191 45.8115L18.8266 46.0421C18.3591 46.5665 17.7594 46.9805 17.0265 47.2838C16.4958 45.7422 16.198 43.9131 16.1317 41.7966L16.1169 40.8721C16.1169 37.0309 16.547 32.9904 17.4094 28.7512L18.8034 22.3311C18.9478 21.5802 19.0191 20.8426 19.0191 20.1205C19.0191 19.1678 18.7873 18.6771 18.3253 18.6482C17.8057 18.6491 17.2434 19.4581 16.6373 21.0746L14.395 27.9516C13.6368 30.2549 12.8669 32.5692 12.0871 34.8942C8.3326 45.9267 4.96742 56.8581 1.99266 67.6885C1.38624 69.5078 1.08315 70.7069 1.08306 71.2846L1.10633 71.5427C1.1959 72.0299 1.55321 72.3555 2.17881 72.5178L2.51304 72.5855C3.37946 72.5855 4.0436 71.5447 4.5057 69.4654C4.5057 69.3787 5.04052 67.0388 6.10914 62.4466C7.8709 54.9375 9.95019 47.1107 12.3473 38.9662L14.0798 34.4182C13.7911 36.6418 13.6483 38.8954 13.6483 41.1768L13.6652 42.3275C13.7473 44.9278 14.1165 46.8983 14.7736 48.2378C15.3042 49.0209 15.9566 49.4619 16.7303 49.5599L17.0688 49.5811C17.9028 49.5811 18.7042 49.2812 19.4718 48.6841L19.7997 48.4113C22.7456 45.4653 27.1068 37.9842 32.8832 25.9695C33.3741 24.9588 34.0095 23.8039 34.7891 22.5045C34.5581 23.746 34.2548 25.0307 33.8795 26.3587C33.3597 28.3801 32.9251 30.46 32.5786 32.5969C32.0587 34.734 31.5818 37.4063 31.1486 40.612C29.5312 50.5184 28.7244 58.2022 28.7244 63.6609L28.7328 64.9449C28.8191 71.1641 29.552 74.2733 30.9328 74.2736C32.4347 74.2736 33.1857 72.8295 33.1857 69.9413C33.0701 68.8731 32.68 68.3379 32.0159 68.3379C31.7561 68.3379 31.4391 68.4406 31.064 68.6425C30.8473 68.1876 30.712 67.2693 30.6578 65.8883L30.6303 64.3526L30.6726 61.5815C30.9903 52.5704 32.2317 44.2803 34.3978 36.7134C37.7759 22.9121 39.6681 15.3744 40.0733 14.1002C40.4523 12.9885 40.6668 12.0416 40.7142 11.2614L40.7248 10.9357ZM41.8078 10.9357C41.8078 11.9418 41.5506 13.1253 41.0992 14.4493C40.6948 15.7382 38.8188 23.2133 35.4512 36.9714L35.4449 36.9905L35.4406 37.0116C33.302 44.4828 32.0707 52.684 31.7557 61.6195L31.7134 64.3695C31.7137 65.4692 31.7482 66.3442 31.8149 67.0052C31.8242 67.097 31.8366 67.1834 31.8466 67.2633C31.9029 67.2589 31.9592 67.2548 32.0159 67.2548C32.6919 67.2548 33.2808 67.5534 33.6807 68.101C34.0367 68.5889 34.1956 69.2078 34.2624 69.825L34.2687 69.8842V69.9413C34.2687 71.4437 34.079 72.7362 33.5834 73.6897C33.3271 74.1824 32.9745 74.6119 32.5024 74.9145C32.0256 75.2201 31.4892 75.3566 30.9328 75.3566C30.0478 75.3566 29.4318 74.7991 29.048 74.1847C28.672 73.5826 28.4086 72.7727 28.2146 71.8409C27.8231 69.9598 27.6414 67.2161 27.6413 63.6609C27.6413 58.1143 28.46 50.363 30.0803 40.4385C30.5126 37.245 30.9906 34.5577 31.5167 32.3854C31.6155 31.778 31.7213 31.1751 31.834 30.5767C29.7598 34.7454 27.8884 38.2673 26.2156 41.1366C24.0272 44.8902 22.1428 47.5997 20.5655 49.177L20.5232 49.2151C19.5043 50.1321 18.346 50.6641 17.0688 50.6641C15.7205 50.6638 14.645 49.979 13.8767 48.8449L13.8344 48.7815L13.8006 48.7138C13.0177 47.1174 12.6392 44.8623 12.5758 42.0483C10.5219 49.1807 8.72044 56.0632 7.1647 62.6941C6.63063 64.9892 6.22977 66.7201 5.96318 67.8873C5.82981 68.4713 5.73077 68.9125 5.66492 69.2115C5.63191 69.3614 5.60813 69.4721 5.59299 69.5458C5.59158 69.5526 5.58995 69.5589 5.58876 69.5648V69.5838L5.56338 69.7002C5.32181 70.7872 5.0059 71.7118 4.57339 72.3888C4.13418 73.0758 3.45873 73.6686 2.51304 73.6686H2.43266L2.35016 73.6559C1.76147 73.5666 1.16929 73.3682 0.712874 72.9536C0.220147 72.5057 0 71.9097 0 71.2846C4.18444e-05 70.8525 0.107815 70.2981 0.262304 69.6875C0.423007 69.0523 0.659064 68.2688 0.966717 67.3458C3.94362 56.5122 7.30855 45.5783 11.0633 34.5451C12.6209 29.901 14.1339 25.2998 15.605 20.7424L15.6134 20.7171L15.6219 20.6938C15.9369 19.8538 16.2668 19.1493 16.6246 18.6356C16.9373 18.1865 17.4917 17.5656 18.3253 17.5652H18.3592L18.393 17.5673C19.0934 17.6111 19.5759 18.0474 19.8251 18.5763C20.0417 19.0367 20.1022 19.5877 20.1022 20.1205C20.1022 20.9149 20.0218 21.72 19.8653 22.5341L19.8611 22.5595L18.8647 27.152L18.8626 27.1647C17.7519 32.0064 17.2 36.5747 17.1999 40.8721C17.1999 42.6928 17.3637 44.2781 17.6801 45.638C17.8608 45.4854 18.025 45.3272 18.1624 45.1494L18.2238 45.069L18.2978 45.0034C19.2417 44.1616 20.589 42.4011 22.3487 39.6029L22.3529 39.5966C24.1151 36.8396 27.6597 30.4406 33.008 20.3511L34.3237 17.8084C35.5039 15.4745 36.2802 13.7642 36.6697 12.6576C36.9867 11.6129 37.3746 10.7278 37.8733 10.0811C38.3933 9.40703 39.1125 8.9007 40.0309 8.9007L40.2213 8.90916C40.6683 8.95275 41.1145 9.15439 41.4271 9.58395C41.7373 10.0104 41.8077 10.5191 41.8078 10.9357Z" fill="black"/>
</svg>
