<svg width="799" height="577" viewBox="0 0 799 577" fill="none" xmlns="http://www.w3.org/2000/svg">
<path d="M687.207 0L624.219 7.68485C620.569 8.18987 617.021 8.76791 613.395 9.206C437.586 30.7049 261.788 52.1632 86.0001 73.581L75.8328 74.7979C64.5397 86.3161 52.7417 97.4753 41.6982 109.091C33.2527 117.986 24.8925 126.992 15.1024 135.133C11.8349 140.609 5.31225 144.375 0.833984 150.344L6.62043 197.749L7.35668 203.834L13.5204 254.336L14.3175 260.847V260.883L17.6944 288.611C17.6944 288.611 17.6944 288.611 17.7309 288.611C17.7674 288.611 17.8039 288.665 17.8404 288.678C50.4417 310.302 82.6901 331.659 114.33 352.554L721.208 278.468L687.207 0ZM53.2528 235.012C49.9722 235.404 46.6488 234.815 43.7028 233.319C40.7568 231.824 38.3205 229.488 36.7018 226.607C35.083 223.727 34.3546 220.431 34.6086 217.137C34.8626 213.843 36.0876 210.698 38.1287 208.1C40.1698 205.502 42.9354 203.567 46.0759 202.54C49.2164 201.514 52.5907 201.441 55.7724 202.332C58.9541 203.223 61.8002 205.037 63.951 207.545C66.1018 210.053 67.4606 213.143 67.8558 216.423C68.1176 218.602 67.9475 220.812 67.3553 222.926C66.7631 225.039 65.7603 227.016 64.4043 228.742C63.0483 230.468 61.3655 231.91 59.4521 232.986C57.5388 234.062 55.4322 234.75 53.2528 235.012Z" fill="#ABC443"/>
<path d="M113.392 175.066C117.706 164.2 125.009 154.779 134.457 147.892C144.018 140.85 155.298 136.547 168.299 134.981C184.229 133.058 198.373 135.618 210.733 142.66C223.093 149.701 232.062 160.258 237.639 174.33L201.698 178.668C198.635 173.644 194.132 169.659 188.774 167.229C183.346 164.87 177.375 164.047 171.512 164.85C161.44 166.067 153.706 170.558 148.311 178.321C142.916 186.085 140.919 195.831 142.318 207.558C143.738 219.281 147.997 228.272 155.096 234.531C162.194 240.79 170.774 243.311 180.834 242.094C186.719 241.483 192.322 239.264 197.031 235.681C201.662 232.052 205.089 227.108 206.863 221.498L242.811 217.159C240.738 232.168 234.534 244.524 224.198 254.227C213.863 263.93 200.728 269.749 184.795 271.684C171.79 273.253 159.807 271.756 148.847 267.193C138.054 262.763 128.727 255.382 121.935 245.897C114.954 236.267 110.664 224.824 109.066 211.568C107.467 198.311 108.909 186.144 113.392 175.066Z" fill="white"/>
<path d="M296.296 249.694C285.187 245.179 275.513 237.732 268.306 228.148C260.855 218.376 256.338 206.927 254.756 193.801C253.174 180.674 254.843 168.505 259.764 157.293C264.516 146.305 272.15 136.804 281.857 129.797C291.665 122.666 302.877 118.339 315.493 116.818C328.108 115.297 340.03 116.833 351.258 121.424C362.321 125.895 371.941 133.324 379.064 142.897C386.366 152.632 390.816 164.057 392.414 177.171C394.012 190.286 392.39 202.477 387.546 213.746C382.889 224.757 375.315 234.289 365.642 241.315C355.906 248.442 344.725 252.766 332.097 254.288C319.47 255.809 307.536 254.277 296.296 249.694ZM352.882 210.667C358.456 202.753 360.537 192.933 359.125 181.206C357.697 169.353 353.337 160.277 346.043 153.977C338.75 147.677 329.751 145.175 319.046 146.469C308.207 147.775 299.995 152.322 294.409 160.11C288.824 167.898 286.751 177.784 288.191 189.766C289.623 201.619 293.983 210.693 301.273 216.989C308.562 223.284 317.624 225.781 328.459 224.479C339.168 223.185 347.309 218.583 352.882 210.673V210.667Z" fill="white"/>
<path d="M490.893 106.14C501.833 110.235 511.354 117.407 518.31 126.791C525.332 136.222 529.644 147.566 531.246 160.822C532.828 173.953 531.335 185.966 526.768 196.861C522.253 207.691 514.674 216.966 504.961 223.548C494.994 230.444 483.001 234.736 468.982 236.423L418.699 242.508L402.502 108.269L452.785 102.185C466.938 100.493 479.64 101.811 490.893 106.14ZM491.112 194.762C497.197 187.18 499.484 177.206 497.975 164.838C496.466 152.47 491.864 143.262 484.169 137.214C476.462 131.162 466.423 128.882 454.051 130.375L438.565 132.243L447.978 210.247L463.464 208.379C475.827 206.89 485.044 202.351 491.112 194.762Z" fill="white"/>
<path d="M577.368 113.751L580.641 140.901L624.45 135.613L627.492 160.852L583.683 166.134L587.237 195.577L636.753 189.602L639.917 215.796L557.702 225.72L541.505 91.4998L623.72 81.582L626.878 107.746L577.368 113.751Z" fill="white"/>
<path d="M726.221 231.835C722.053 231.939 717.904 232.103 713.736 232.103C511.532 232.103 309.333 232.103 107.138 232.103H95.4674C81.0712 244.455 66.1396 256.296 52.0416 268.818C41.2292 278.401 30.5021 288.13 18.2842 296.6C13.8303 302.794 5.89598 306.396 0 313.028V449.798V449.828V484.121C0.0371623 484.151 0.0699306 484.186 0.0973465 484.225C34.0129 515.323 67.6668 546.178 100.609 576.358H798.64V231.835H726.221ZM43.3528 420.793C40.0482 420.793 36.8178 419.813 34.0701 417.977C31.3225 416.141 29.1809 413.531 27.9163 410.478C26.6517 407.425 26.3208 404.066 26.9655 400.825C27.6102 397.584 29.2015 394.607 31.5382 392.27C33.8749 389.933 36.852 388.342 40.0931 387.697C43.3342 387.052 46.6937 387.383 49.7468 388.648C52.7998 389.912 55.4093 392.054 57.2452 394.802C59.0812 397.549 60.0611 400.78 60.0611 404.084C60.0627 406.279 59.6316 408.452 58.7925 410.48C57.9534 412.508 56.7227 414.351 55.1709 415.902C53.6191 417.454 51.7765 418.685 49.7487 419.524C47.7208 420.363 45.5474 420.794 43.3528 420.793Z" fill="#41361A"/>
<path d="M307.692 325.86V482.314H269.584V388.489L234.598 482.314H203.84L168.629 388.264V482.314H130.515V325.86H175.541L219.447 434.166L262.903 325.86H307.692Z" fill="white"/>
<path d="M373.217 325.86V482.314H335.109V325.86H373.217Z" fill="white"/>
<path d="M578.031 325.86V482.314H539.923V388.489L504.961 482.314H474.179L438.961 388.264V482.314H400.854V325.86H445.88L489.78 434.166L533.242 325.86H578.031Z" fill="white"/>
<path d="M643.556 356.393V388.033H694.588V417.452H643.556V451.775H701.275V482.307H605.442V325.86H701.275V356.393H643.556Z" fill="white"/>
</svg>
